<?xml version="1.0" encoding="utf-8"?>
<!-- Generator: Adobe Illustrator 25.2.1, SVG Export Plug-In . SVG Version: 6.00 Build 0)  -->
<svg version="1.1"
	 id="svg10" xmlns:cc="http://creativecommons.org/ns#" xmlns:dc="http://purl.org/dc/elements/1.1/" xmlns:rdf="http://www.w3.org/1999/02/22-rdf-syntax-ns#" xmlns:svg="http://www.w3.org/2000/svg"
	 xmlns="http://www.w3.org/2000/svg" xmlns:xlink="http://www.w3.org/1999/xlink" x="0px" y="0px" viewBox="0 0 512 512"
	 style="enable-background:new 0 0 512 512;" xml:space="preserve">
<style type="text/css">
	.st0{display:none;}
	.st1{display:inline;stroke:#000000;stroke-width:1.0002;}
	.st2{display:inline;stroke:#000000;stroke-width:0.685;}
	.st3{display:inline;}
</style>
<g id="layer6" class="st0">
	<path id="path176" class="st1" d="M566,609c19.6,33.6,41.2,66.6,65,99c3.8,5.1,7.6,10.3,11.5,15.4c-3.8-4.4-7.6-8.8-11.3-13.3
		c-27-32.1-51.5-65.1-73.6-98.7c18.3,40.5,38.8,80.6,61.8,120.1c-24.1-39.2-45.6-79.2-64.7-119.6c16,41,33.9,81.7,53.9,121.9
		c-22.6-38.7-42.8-78.1-60.9-117.8c11.2,40.5,23.7,80.8,37.6,120.9c-18.3-40.3-34.6-81-49.2-122c8.7,41.9,18.4,83.6,29.3,125.3
		c-14.5-40.4-27.5-81-39-121.8c7.7,40.9,16.3,81.7,25.9,122.4c-11.1-40.4-20.9-81-29.7-121.7c1.6,42,3.5,84,5.8,126
		c-3.6-24.9-7-49.7-10.1-74.6c-2.2-17.4-4.2-34.8-6.2-52.1c1.1,41.8,2.5,83.6,4.1,125.4c0,1.1,0.1,2.2,0.1,3.3
		c-0.1-0.4-0.1-0.9-0.2-1.3c-6-42.1-11.2-84.2-15.7-126.3c-1.3,42.4-2.6,84.9-3.8,127.3c0.2-42.9,0.6-85.9,1.1-128.8
		c-7.5,42.4-15.6,84.7-24.4,126.9c5.6-42.8,10.9-85.6,15.9-128.4c-9.6,41.3-20,82.6-31.3,123.7c8.3-41.5,16.1-83.1,23.3-124.8
		c-13.5,41.5-28.3,82.7-44.3,123.7c11.7-40.7,22.6-81.5,32.7-122.5c-14.7,39.8-30.7,79.4-48,118.7c15.3-39.2,29.5-78.6,42.6-118.2
		c-17.2,39-35.9,77.7-56.1,116c15.6-40.4,30-81.1,43.4-121.9c-15.7,33.9-32.6,67.5-50.6,100.8c-3.3,6.2-6.7,12.3-10.2,18.5
		c3.6-7.6,7.2-15.3,10.7-23c14.6-31.9,28.4-63.9,41.3-96.2c-11.8,20.9-24.2,41.6-37.1,62.1c-10.4,16.5-21.2,32.8-32.4,49.1
		c11.5-18.5,22.6-37.2,33.2-56c11-19.4,21.5-39,31.6-58.6c-9.6,14.4-19.5,28.8-29.7,43c-16.4,22.8-33.7,45.3-52,67.4
		c19-26.3,36.8-53,53.5-80c6.3-10.1,12.4-20.3,18.4-30.5c-5.7,7.3-11.5,14.7-17.4,21.9c-22.8,28.1-47.2,55.7-73.5,82.3
		c27-30.2,51.8-61.4,74.8-93.1c3.6-4.9,7.1-9.8,10.6-14.8c-3.3,3.7-6.7,7.3-10.1,11c-27.9,30-58,59-90.8,86.6
		c33.7-32,64.3-65.5,92.5-99.9c0.4-0.5,0.9-1.1,1.3-1.6c-0.4,0.4-0.8,0.8-1.3,1.3c-33.3,32.8-69.7,64.3-109.9,93.6
		c38.8-32,73.8-65.8,105.8-100.9c-35.2,33-73.8,64.4-116.5,93.5c38.4-30.5,73.2-63,105-96.7c-32.7,26.3-68,51.3-106.5,74.2
		c-6.4,3.9-13,7.7-19.6,11.4c6.8-4.1,13.4-8.2,19.9-12.4c36.1-23.3,69.3-48.3,100.1-74.5c-30,20.8-62,40.5-96.3,58.5
		c-11.8,6.2-24,12.2-36.6,17.9c12.8-6.4,25.1-13.1,37.1-20.1c33.1-19.1,63.9-39.7,92.7-61.5c-28.3,18.2-58.3,35.4-90.3,51.2
		c-15.8,7.8-32.2,15.2-49.3,22.1c17.6-8.5,34.4-17.5,50.5-27c27.9-16.4,54.2-33.9,79-52.2c-24.2,14.3-49.5,27.9-76.3,40.4
		c-21.9,10.3-45.1,19.9-69.7,28.2c24.8-9.1,48.1-19.4,70.2-30.5c26.6-13.3,51.8-27.6,75.8-42.7c-23.5,12.3-48.1,23.8-73.9,34.3
		c-25,10.3-51.4,19.5-79.7,27.2c29.1-10.1,56.1-21.8,81.4-34.6c21.3-10.7,41.7-22,61.3-33.9c-19.1,9.2-38.9,17.9-59.5,26
		c-29.2,11.6-60.4,21.7-94.1,29.5c33.9-8.5,65.3-19.3,94.6-31.6c20.1-8.4,39.5-17.3,58.2-26.8c-18.4,7.6-37.3,14.7-56.9,21.3
		c-33.6,11.3-69.5,20.7-108.6,26.8c39.4-7,75.5-17.2,109.2-29.3c17.7-6.4,34.9-13.2,51.7-20.4c-16.4,5.5-33.2,10.5-50.4,15.1l0,0
		c-35.6,9.6-73.6,17-114.8,20.7c0,0,0,0,0,0c-1.4,0.1-2.9,0.3-4.3,0.4c1.5-0.2,2.9-0.4,4.4-0.7c42.3-6.5,80.9-16.7,116.8-29.2l0,0
		c14.9-5.2,29.5-10.7,43.7-16.4c-14,4.6-28.3,8.9-42.9,12.9l0,0c-35.1,9.7-72.5,17.2-113.1,21.1h0c-5.2,0.5-10.4,1-15.8,1.3
		c5.4-0.6,10.8-1.3,16.1-2.1h0c41.3-5.8,79.1-15.4,114.4-27l0,0c11.5-3.8,22.7-7.7,33.8-11.9c-10.9,3.2-21.9,6.2-33.1,9.1l0,0
		c-34.6,8.8-71.2,15.5-110.8,18.8c-9.5,0.9-19.3,1.4-29.4,1.6c10.1-0.3,20-1,29.5-1.9c39.7-3.7,76.5-11,111.1-20.3
		c10.4-2.8,20.6-5.7,30.8-8.8c-9.9,2-19.9,3.9-30,5.6c-33.6,5.7-69,9.5-106.7,9.9c0,0,0,0,0,0c-12.9,0.3-26.3,0-40.1-1.1
		c14.1,0.6,27.6,0.4,40.6-0.3c38.1-1.9,73.7-7,107.4-14.2c9.4-2,18.7-4.1,27.8-6.3c-9,1.6-18.2,3.1-27.4,4.4
		c-33.2,4.9-67.9,7.8-104.6,7.6c0,0,0,0,0,0c-13.7,0-28-0.6-42.7-2.1c15,1,29.4,1.1,43.3,0.5h0c37.2-1.2,72.1-5.5,105.4-11.8
		c7.1-1.3,14.2-2.8,21.2-4.3c-6.9,1.1-13.9,2.1-21,3.1c-32.8,4.5-67.1,7-103.2,6.6c0,0,0,0,0,0c-16.2-0.1-33.1-1.1-50.6-3.3
		c17.8,1.7,34.9,2.1,51.3,1.7c0,0,0,0,0,0c36.5-0.7,71-4.6,103.9-10.3l0,0c4.9-0.8,9.7-1.7,14.5-2.6c-4.7,0.4-9.5,0.8-14.2,1.2
		c-32.1,2.5-65.4,3.2-100.1,1c0,0,0,0,0,0c-19.2-1.1-39.2-3.5-60-7.5c21.2,3.4,41.5,5,60.8,5.4c35.1,0.8,68.5-1.3,100.7-5.2l0,0
		c5.6-0.7,11.1-1.4,16.7-2.2c-5.4,0.4-10.9,0.7-16.4,1l0,0c-31.6,1.6-64.2,1.5-98-1.4h0c-20.7-1.7-42.2-4.8-64.6-10
		c22.6,4.8,44.2,7.5,65,8.8h0c34,2.3,66.7,1.7,98.3-0.6c4.4-0.3,8.7-0.7,13-1c-4.3,0.1-8.6,0.3-12.9,0.4l0,0
		c-31.2,0.7-63.3-0.4-96.4-4.1h0c-21.2-2.3-43.3-6.1-66.1-12.1c23.5,4.8,45.9,7.3,67.5,8.2l0,0c33.6,1.7,66,0.6,97.3-2.2l0,0
		c3.3-0.3,6.5-0.6,9.8-0.9c-3.2,0-6.4,0-9.6,0c-30.6-0.1-62-1.8-94-6c0,0,0,0,0,0c-24.2-3.2-49.3-8.2-75.1-16.2
		c26.2,7.3,51.5,11.6,75.9,14l0,0c32.3,3.2,63.7,3.9,94.4,2.9l0,0c2.1-0.1,4.2-0.1,6.3-0.2c-2.1,0-4.1-0.1-6.2-0.1l0,0
		c-30.3-0.8-61.1-3.2-92.4-8.1l0,0c-22.8-3.5-46.1-8.6-70-16.3c24.1,7.2,47.7,11.6,70.6,14.5c0,0,0,0,0,0c31.5,4,62.4,5.5,92.7,5.5
		l0,0c1.7,0,3.4,0,5.1,0c-1.7-0.1-3.4-0.2-5.1-0.3l0,0c-29.8-1.9-60-5.3-90.5-11.1c0,0,0,0,0,0c-23.7-4.5-47.9-10.7-72.3-19.7
		c24.9,8.2,49.4,13.4,73.3,16.8l0,0c30.8,4.5,61.1,6.6,91,7.2l0,0c1.6,0,3.1,0.1,4.7,0.1c-1.5-0.1-3.1-0.3-4.6-0.4
		c-29.3-2.9-58.8-7.3-88.3-13.9c0,0,0,0,0,0c-24.7-5.5-49.7-12.9-74.4-23.3c25.1,9.8,50.4,16.3,75.3,21.1l0,0
		c29.7,5.7,59.3,9.1,88.7,11.1c0.6,0,1.2,0.1,1.7,0.1c-0.6-0.1-1.1-0.2-1.7-0.2l0,0c-28.8-4.1-57.7-9.6-86.3-17.3h0
		c-24-6.4-48.1-14.5-71.4-25.5c23.6,10.5,47.9,18,72,23.9h0c28.7,7,57.7,11.8,86.5,15.2l0,0c0.2,0,0.3,0,0.5,0.1
		c-0.2,0-0.3-0.1-0.5-0.1c-28.5-4.9-56.9-11.3-84.8-19.7c0,0,0,0,0,0c-23.3-7-46.4-15.5-68.5-26.7c22.8,10,46.4,17.2,70,23
		c27.9,6.8,56,11.4,84.2,14.7c-27.7-5.4-55.1-12-81.9-20.6c-23.1-7.4-45.8-16.3-67.1-27.6c21.6,11,44.4,19.5,67.6,26.5
		c27.3,8.3,55.2,14.5,83.3,19.4l0,0c1.1,0.2,2.2,0.4,3.3,0.6c-1.1-0.3-2.2-0.6-3.3-0.8l0,0c-27.5-7.2-54.6-15.7-80.6-26.1l0,0
		c-22.9-9.1-45-19.6-64.9-32.4c20.4,12.1,42.7,21.9,65.8,30.2c25.4,9.2,51.7,16.7,78.4,22.9c-26.4-7.6-52.2-16.3-76.9-26.8
		c-21.6-9.2-42.3-19.5-60.9-31.7c19.4,10.9,40.6,19.7,62.5,27.4c25.9,9,52.7,16.1,80,22c1.3,0.3,2.6,0.6,3.9,0.8
		c-1.3-0.4-2.5-0.8-3.8-1.1c-26.8-8.1-52.8-17.5-77.5-28.5l0,0c-20.6-9.3-40.2-19.5-57.3-31.3c17.5,11.3,37.3,20.8,58.1,29.4
		c24.9,10.2,51,18.7,77.8,26l0,0c1,0.3,2,0.5,3,0.8c-1-0.3-2-0.7-3-1.1c-26.3-9.4-51.7-19.9-75.4-32.1c-19.5-10-37.7-20.8-53.2-33
		c15.8,11.7,34.1,22,53.8,31.6l0,0c23.9,11.6,49.3,21.5,75.6,30.3l0,0c1.1,0.4,2.1,0.7,3.2,1.1c-1-0.4-2.1-0.9-3.1-1.3
		c-25.8-10.9-50.5-22.9-73.3-36.3c0,0,0,0,0,0c-18.1-10.7-34.6-22-48.3-34.3c14.3,11.2,31.3,21.3,49.6,30.8l0,0
		c23.1,11.9,48,22.3,73.9,31.6l0,0c0.5,0.2,1,0.4,1.5,0.5c-0.5-0.2-1-0.4-1.5-0.7c-25.4-11.4-49.5-23.8-71.6-37.6l0,0
		c-15.8-9.9-30.1-20.2-42.1-31.1c12.3,10.2,26.9,19.8,42.9,29c22.3,12.8,46.5,24.2,72,34.5l0,0c2.8,1.2,5.7,2.3,8.6,3.4
		c-2.8-1.4-5.6-2.8-8.4-4.2l0,0c-24.9-12.5-48.4-26-69.5-40.8l0,0c-14.6-10.3-27.7-20.8-38.3-31.7C250,370,263.3,380.1,278,390
		c0,0,0,0,0,0c21.2,14.2,44.8,27.1,69.7,39l0,0c2.6,1.3,5.2,2.5,7.9,3.7c-2.6-1.5-5.1-3-7.7-4.6l0,0c-24.2-14.7-46.8-30.3-66.5-47.1
		l0,0c-12.2-10.4-23-20.9-31.5-31.5c9.1,9.5,20.3,18.8,32.8,28.1c0,0,0,0,0,0c20.2,14.9,43,28.5,67.3,41.3l0,0
		c2.9,1.5,5.9,3,8.8,4.5c-2.9-1.7-5.8-3.4-8.7-5.1c-24-14.2-46.3-29.3-65.7-45.4l0,0c-11.2-9.4-21.2-18.8-29.2-28.2
		c8.2,9.1,18.3,18.1,29.6,27.1c19.6,15.5,42,29.8,66,43.3l0,0c3.2,1.8,6.5,3.6,9.8,5.4c-3.2-2.2-6.3-4.4-9.5-6.7l0,0
		c-23.2-16.7-44.4-34.2-62.2-52.6l0,0c-8.9-9.2-16.7-18.4-22.9-27.4c6.5,8.3,14.6,16.7,23.7,25.2c0,0,0,0,0,0
		c18.2,16.9,39.7,32.7,63,47.8l0,0c5.2,3.3,10.4,6.6,15.7,9.9c-5.2-3.7-10.4-7.4-15.4-11.2l0,0c-22.8-17.1-43.5-35-60.6-53.7l0,0
		c-7-7.7-13.2-15.3-18.3-22.8c5.3,7.1,11.7,14.2,18.8,21.5l0,0c17.4,17.6,38.2,34.4,61.1,50.4c4.7,3.3,9.5,6.5,14.3,9.7
		c-4.7-3.7-9.4-7.5-13.9-11.4l0,0c-22.2-18.7-42.1-38-58-58c-6.2-7.8-11.6-15.5-15.9-23c4.6,7,10.2,14.1,16.6,21.3
		c16.4,18.5,36.5,36.3,58.8,53.3l0,0c6.4,4.9,13,9.7,19.7,14.5c-6.6-5.5-13-11-19.2-16.6l0,0c-21.7-19.6-40.8-39.8-55.7-60.6
		c0,0,0,0,0,0c-4.4-6.2-8.4-12.3-11.7-18.3c3.5,5.7,7.5,11.5,12,17.4h0c15.3,19.7,34.5,38.9,56.3,57.4l0,0
		c6.6,5.6,13.5,11.2,20.5,16.7c-6.8-6.5-13.4-13.1-19.8-19.7l0,0c-20.9-21.8-38.9-44.1-52.3-66.8c0,0,0,0,0,0
		c-2.4-4.1-4.6-8.1-6.6-12.1c2.1,3.6,4.4,7.3,7,11.1c14,20.7,32.4,41,53.5,60.7l0,0c8.6,8,17.5,15.9,26.8,23.7
		c-9.1-8.9-17.8-18-26-27.2l0,0c-20.3-22.6-37.5-45.7-49.8-69l0,0c-0.5-0.9-0.9-1.7-1.3-2.6c0.5,0.8,0.9,1.6,1.4,2.4c0,0,0,0,0,0
		c12.9,21.7,30.5,43,51,63.9l0,0c8.9,9.1,18.3,18.1,28.2,26.9c-9.6-10.1-18.7-20.4-27.2-30.8c-18.7-22.7-34.4-45.8-45.4-69
		c11.5,21.9,27.5,43.6,46.4,65c9.2,10.4,18.9,20.6,29.2,30.7c-10-11.6-19.3-23.4-28.1-35.3c-16.4-22.3-30.1-44.8-39.7-67.4
		c10.2,20.8,24.3,41.6,40.9,62.1c10.1,12.4,20.9,24.7,32.4,36.7c-11-15-21.1-30.3-30.3-45.6c-12.4-20.7-22.7-41.5-30.2-62.1
		c7.9,19.1,18.6,38.3,31.3,57.4c11.1,16.8,23.4,33.4,36.8,49.7c-13.2-17.6-25.2-35.5-35.9-53.6c-11-18.5-20.3-37.1-27.3-55.6
		c7.2,17.7,16.7,35.6,27.8,53.3c11.3,18.1,24,36,37.9,53.6c-13.3-21.3-25.2-42.9-35.3-64.7c-7.6-16.3-14.1-32.5-19.2-48.7
		c5.6,14.4,12.5,28.8,20.5,43.3c12.6,23,27.4,45.7,44,68.1c-15.9-26.4-29.8-53.2-41.2-80.1c-5.4-12.7-10.1-25.5-14-38.1
		c4.1,11.8,9,23.8,14.5,35.7c11.9,25.6,26.2,50.9,42.5,75.9c-15.5-29.9-28.7-60.2-39-90.6c-2.6-7.6-5-15.2-7.1-22.7
		c2.4,6.6,5,13.3,7.7,19.9c12.7,30.3,28.7,60.4,47.3,89.9c-17.8-35.8-32.4-71.9-43.1-108.2c-0.9-2.9-1.7-5.9-2.5-8.8
		c0.8,2.8,1.7,5.6,2.6,8.4c11.5,35.8,27.1,71.5,45.9,106.8c-17-38.2-30.7-76.7-40.4-115.2c11.2,39.1,26.9,78.1,46.1,116.6
		c-14.8-40.7-26.6-81.7-34.6-122.6c9.8,39,23.6,78,40.5,116.7c0.6,1.5,1.3,2.9,1.9,4.4c-0.6-1.8-1.2-3.6-1.8-5.5
		c-12.9-39.8-23.3-79.8-30.4-119.7c8.1,34.6,19.1,69.2,32.4,103.6c2,5.3,4.1,10.6,6.3,15.8c-1.9-7.3-3.7-14.7-5.5-22
		c-8-33.2-14.4-66.5-19.1-99.8c5.5,28.5,12.5,57.1,20.9,85.6c3.7,12.7,7.7,25.5,11.9,38.2c-3.9-15.3-7.6-30.6-11-46
		c-5.9-26.8-10.8-53.5-14.6-80.3c4.1,25.3,9.1,50.7,15.1,76c3.9,16.5,8.2,33,12.8,49.5c-4-22.8-7.5-45.6-10.5-68.4
		c-2.5-19-4.6-38-6.4-57.1c2.4,14.4,5.1,28.8,8.1,43.2c5.6,27.1,12.2,54.3,19.7,81.3c-6.1-41.7-10.8-83.4-14-125.1
		c5.1,40,11.9,80.1,20.3,120c-5.7-40.7-10.1-81.5-13.2-122.2c4.9,40.8,11.4,81.5,19.5,122.2c-3.2-40.6-5.5-81.2-6.9-121.8
		c2.5,41.7,6.1,83.4,10.8,125c0-42.2,0.4-84.5,1.3-126.7c1.6,40.7,3.9,81.4,7.1,122.1c0.5-41.7,1.3-83.4,2.4-125
		c-0.3,42.1-0.1,84.3,0.5,126.5c3.8-41.1,7.4-82.3,10.8-123.4c-1.2,41.8-2.2,83.7-3,125.6c4.3-41.4,8.3-82.9,12-124.4
		c-1,41.4-1.9,82.7-2.8,124.1c3.8-24.9,7.3-49.8,10.6-74.8c2.2-16.9,4.4-33.8,6.4-50.7c-2.1,22.9-4.4,45.8-6.9,68.8
		c-2.1,19.4-4.2,38.9-6.5,58.3c2-10.3,3.9-20.6,5.8-30.9c5.7-31.5,10.9-63.1,15.4-94.7c-3.5,41.5-7.6,82.9-12.2,124.3
		c10-41.1,18.7-82.4,25.8-123.7c-5.1,41.8-11.3,83.6-18.4,125.3c10.4-40.6,19.4-81.3,26.7-122.2c-6.1,41.9-13.7,83.7-22.6,125.4
		c12.5-40.8,23.2-81.8,31.8-122.9c-6.3,40.6-14.3,81.1-23.7,121.5c15-39.3,27.8-79,37.8-119c-8.5,41-19.5,81.9-32.5,122.5
		c15.8-38.7,29.2-77.9,39.7-117.3c-8.5,38.9-19.3,77.6-32.3,116c13.8-31.1,25.9-62.5,35.8-94.1c2.1-6.5,4-13.1,5.9-19.6
		c-1.8,7.5-3.6,15.1-5.6,22.6c-8.6,32.5-19,64.8-31.1,96.8c12.3-24.2,23.3-48.6,32.8-73.2c5.4-14,10.3-27.9,14.6-41.9
		c-4.1,14.8-9,29.6-14.4,44.3c-8.8,24.2-19,48.3-30.3,72.1c11.5-18.2,22-36.6,31.5-55.2c9.7-18.8,18.1-37.7,24.8-56.6
		c-6.4,21.8-14.6,43.5-24.2,65.1c-7.5,17-15.7,33.8-24.6,50.5c9-14.2,17.4-28.4,25.1-42.9c12.2-22.6,22.6-45.4,30.5-68.3
		c-7.7,24.1-18,48-30.3,71.8c-6.7,13-13.8,25.9-21.4,38.7c7.6-10.9,14.9-21.9,21.8-32.9c15.3-24.6,28.1-49.6,37.4-74.7
		c-8.5,30.1-21,60.1-36.3,89.7c-4,7.9-8.2,15.7-12.6,23.5c4.4-6.3,8.8-12.7,12.9-19.1c18.9-28.9,34.4-58.3,44.8-87.9
		c-10,31.7-25.4,63.2-44.3,94.2c-3.2,5.3-6.5,10.5-9.9,15.7c3.4-4.3,6.8-8.6,10.1-12.9l0,0c22.1-29.1,40.3-58.8,52.3-89c0,0,0,0,0,0
		c0.7-1.8,1.4-3.6,2.1-5.3c-0.6,1.9-1.3,3.8-2,5.7c-11.6,32.2-29.7,64-51.9,95.1c-2.5,3.5-5.1,7-7.6,10.5c2.6-2.9,5.2-5.9,7.8-8.8
		l0,0c22.6-26,41.7-52.8,55.1-80.2c0,0,0,0,0,0c2.2-4.4,4.2-8.8,5.9-13.2c-1.7,4.6-3.6,9.2-5.7,13.9c-13.1,29-32.2,57.4-54.8,85.1
		l0,0c-1.4,1.7-2.7,3.3-4.1,5c1.4-1.3,2.8-2.7,4.2-4.1c23.1-22.4,43.1-45.6,58.1-69.5l0,0c5.1-8,9.4-16,12.5-23.8
		c-3,8.6-7,17.4-12,26.3c-14.4,26-33.9,51.3-56.5,75.8c22.9-21.2,43-43.3,58.5-66.1c7.4-10.8,13.2-21.4,17-31.7
		c-3.4,11.6-9,23.4-16.2,35.4c-13.7,23-31.4,45.4-51.7,67.2c20.5-18.7,38.8-38,53.5-58c10.1-13.7,17.8-27.1,21.8-40.2
		c-3.7,13.9-11.2,28.3-21.2,42.8c-13.8,20.2-30.9,39.7-50.1,58.7c19.5-16.3,37-33.2,51.7-50.8c12.2-14.5,21.4-28.9,25.9-42.9
		c-4,15.5-13,31.4-25,47.5c-13.2,17.8-29,35-46.5,51.7c17.8-13.8,34.1-28.1,48.2-43.1c15.3-16.2,26.7-32.2,31.7-48
		c-4.6,16.7-16,33.7-31.2,50.8c-13,14.7-27.9,28.8-44.2,42.5c16.5-12.2,31.7-24.9,45.1-38.2c16.5-16.3,29.1-32.6,34.6-48.7
		c-4.9,17.7-17.3,35.7-33.7,53.6c-12.3,13.5-26.2,26.5-41.3,39.1c15.3-10.3,29.7-21.1,42.6-32.3l0,0c17.3-15.1,31.1-30.2,38.5-45.6
		c0,0,0,0,0,0c0.8-1.6,1.4-3.2,1.9-4.8c-0.5,1.6-1.1,3.2-1.8,4.9l0,0c-7.2,15.8-20.9,31.5-38.3,47l0,0c-13,11.7-27.5,22.9-42.9,33.6
		c15.7-8.9,30.4-18.3,44-28.2l0,0c18-13.2,32.9-26.6,42.1-40.5l0,0c2.1-3.2,3.7-6.3,4.7-9.2c-0.8,3.3-2.2,6.8-4.2,10.4l0,0
		c-8.6,15.6-23.3,30.9-41.2,46l0,0c-11.5,9.6-23.9,18.8-37,27.7c13.3-7.3,26-15,37.9-23.1c18.6-12.7,34.4-25.7,44.8-39.5l0,0
		c3.4-4.5,5.8-8.7,7.2-12.7c-1.2,4.2-3.6,8.7-6.8,13.5l0,0c-10.2,14.5-25.9,28.4-44.5,41.9l0,0c-11.3,8.2-23.3,16-35.9,23.5
		c12.8-6.3,25-12.9,36.6-19.9c19.1-11.6,35.7-23.6,47.5-36.5l0,0c4.9-5.4,8.4-10.5,10.2-15.4c0.1-0.3,0.2-0.5,0.3-0.8
		c-0.1,0.3-0.1,0.6-0.2,0.9c-1.5,5.2-4.9,10.8-9.6,16.7l0,0c-11.5,14-28,27.1-47.1,39.8l0,0c-11.4,7.5-23.5,14.7-36.1,21.6
		c12.7-5.7,25-11.7,36.8-18.1l0,0c19.7-10.8,37-22.1,50-34.5c5.4-5.2,9.6-10.2,12.2-15c0.6-1.1,1-2.1,1.4-3.1
		c-0.3,1-0.7,2.1-1.2,3.3c-2.4,5.2-6.5,10.5-11.8,16.1l0,0c-12.8,13.3-30.1,25.5-49.7,37.2l0,0c-10.4,6.1-21.2,12-32.4,17.6
		c11.4-4.4,22.4-9.2,33.1-14.2l0,0c20.2-9.6,38.5-19.8,52.9-31.3l0,0c6-4.9,11-9.6,14.5-14.3c1.1-1.6,2.1-3,2.8-4.4
		c-0.6,1.5-1.5,3.1-2.6,4.7c-3.3,5.1-8.2,10.2-14.1,15.5c-14.2,12.5-32.3,23.8-52.6,34.4l0,0c-10.5,5.5-21.4,10.7-32.7,15.6
		c11.3-4.2,22.4-8.6,33.1-13.4l0,0c20.6-9.2,39.4-19.1,54.6-30.5l0,0c6.4-4.8,11.8-9.5,15.9-14.3c2.2-2.7,4-5.1,5.1-7.3
		c-0.9,2.4-2.5,5.1-4.6,8.1c-3.9,5.2-9.1,10.5-15.4,15.7l0,0c-15,12.5-33.7,23.7-54.4,34.1l0,0c-9.8,4.9-19.8,9.6-30.2,14
		c10.4-3.6,20.7-7.4,30.7-11.5l0,0c21.1-8.6,40.6-18.1,56.9-29.2c6.9-4.7,12.9-9.4,17.7-14.2c2.6-2.6,4.7-5.1,6.3-7.5
		c-1.6,2.4-3.7,4.9-6.3,7.6c-4.8,4.9-10.8,9.6-17.6,14.4c-16.3,11.2-35.8,20.8-56.9,29.6l0,0c-10.6,4.4-21.5,8.5-32.7,12.4
		c11.3-2.7,22.4-5.6,33.4-8.9l0,0c21.7-6.5,42.2-13.9,60.2-23.2c7.6-3.9,14.6-8,20.6-12.4c3.9-2.9,7.3-5.7,10-8.4
		c-2.6,3-5.8,6-9.6,9.1c-5.8,4.7-12.7,9.2-20.2,13.5l0,0c-17.9,10.2-38.3,18.6-60.1,26.1l0,0c-9.9,3.4-20,6.5-30.2,9.4
		c10.3-2.3,20.5-4.9,30.5-7.8l0,0c22-6.3,43-13.5,61.8-22.7l0,0c7.9-3.9,15.3-8,21.7-12.5c4.9-3.4,9.2-6.8,12.7-10.3
		c-3.1,3.8-7.2,7.6-11.9,11.5c-6.2,5-13.4,9.7-21.2,14.3c-18.5,10.7-39.5,19.4-61.5,27.1l0,0c-10.2,3.6-20.6,6.8-31.1,9.9
		c10.7-2,21.3-4.2,31.7-6.7l0,0c22.7-5.4,44.6-11.9,64.8-20.7c8.6-3.7,16.7-7.7,24.1-12.2c6.5-3.9,12.3-8,17.2-12.5
		c-4.6,4.8-10.3,9.2-16.6,13.5c-7.3,4.9-15.3,9.3-23.8,13.5l0,0c-20,9.8-42,17.3-64.7,23.8l0,0c-9.2,2.6-18.5,5-27.9,7.2
		c9.5-1.7,18.8-3.6,28.1-5.8c23-5.3,45.4-11.8,66.3-20.5l0,0c8.9-3.7,17.3-7.8,25.2-12.4c6.6-3.9,12.8-8.1,18.1-12.8
		c-5.2,4.8-11.2,9.2-17.8,13.4c-7.8,4.9-16.2,9.3-25,13.2l0,0c-20.8,9.4-43.2,16.6-66.2,22.5l0,0c-8.8,2.3-17.6,4.3-26.6,6.2
		c9-1.2,18-2.5,27-4.1c23.5-4.1,46.7-9.4,68.8-17.2c9.4-3.3,18.6-7.1,27.3-11.6c6.9-3.5,13.5-7.4,19.5-11.8
		c-5.9,4.7-12.4,8.8-19.1,12.5c-8.6,4.8-17.7,8.9-27.1,12.6c-22,8.6-45.2,14.8-68.7,19.7l0,0c-9.3,1.9-18.6,3.6-28,5.2
		c9.5-0.7,19-1.6,28.5-2.7c24-2.8,48-7,71.6-13.9c10-2.9,19.9-6.4,29.6-10.7c8.4-3.7,16.6-8.1,24.4-13.4c-7.6,5.6-15.7,10.2-24,14.2
		c-9.6,4.6-19.4,8.4-29.3,11.7c-23.4,7.7-47.4,12.7-71.4,16.3l0,0c-10.8,1.6-21.6,3-32.4,4.1c10.9-0.4,21.8-1.1,32.8-2
		c24.4-2.1,49.1-5.6,73.6-12.1c10.4-2.7,20.9-6.1,31.2-10.4c9-3.7,18.1-8.2,26.8-13.9c-8.5,5.9-17.4,10.7-26.4,14.7
		c-10.2,4.6-20.6,8.3-31,11.3l0,0c-24.4,7.2-49,11.6-73.5,14.5l0,0c-11,1.3-22,2.3-33,3.1c11.1-0.1,22.2-0.5,33.4-1.2
		c24.8-1.5,50.1-4.5,75.5-10.5c10.8-2.6,21.8-5.8,32.8-10.1c9.3-3.6,18.8-8.1,28.1-13.9c-9,6.2-18.2,11.2-27.3,15.2
		c-10.7,4.8-21.6,8.7-32.3,11.9l0,0c-25.2,7.5-50.4,12-75.3,14.9l0,0c-11.8,1.4-23.6,2.5-35.4,3.3c11.9,0.1,23.9-0.1,35.9-0.6
		c25.3-1.1,51.4-3.8,77.9-9.7l0,0c11.3-2.5,22.9-5.8,34.6-10.2c9.4-3.5,19.1-8,28.8-13.8c-9.6,5.9-19.2,10.5-28.6,14.2
		c-11.6,4.6-23.2,8.1-34.5,10.8c-26.5,6.4-52.5,9.5-77.9,11.1l0,0c-11.2,0.7-22.4,1.1-33.5,1.2c11.2,0.6,22.5,0.9,33.9,0.9l0,0
		c25.8,0.1,52.5-1.5,80.2-6.5c11.8-2.1,24-5.1,36.5-9.3c7.4-2.5,15.1-5.5,22.8-9.4c-7.6,4.1-15,7.4-22.4,10.2
		c-12.3,4.7-24.3,8.2-36,10.8c-27.4,6.2-54.1,9.1-79.9,10.2l0,0c-13.2,0.6-26.4,0.8-39.4,0.7c13.2,1.1,26.5,1.8,39.9,2.1
		c26.3,0.7,53.8-0.4,82.6-5.1c12.3-2,25.1-5,38.4-9.2c6.8-2.2,13.8-4.8,21-8.1c-7.1,3.4-14,6.2-20.7,8.6c-13.1,4.6-25.8,7.8-38,10.2
		c-28.6,5.5-56.1,7.4-82.4,7.5l0,0c-12.4,0.1-24.8-0.2-36.9-0.8c12.3,1.5,24.8,2.7,37.5,3.5l0,0c26.8,1.8,55.1,1.7,85.2-2.1l0,0
		c12.9-1.7,26.4-4.4,40.5-8.5c5.2-1.5,10.5-3.3,15.9-5.4c-5.4,2.2-10.6,4.1-15.8,5.6c-14,4.4-27.4,7.3-40.2,9.3
		c-30,4.5-58.2,5.2-85,4.1l0,0c-14.9-0.6-29.6-1.7-44-3.2c14.6,2.8,29.5,5.1,44.7,7l0,0c27.4,3.4,56.6,4.8,88.3,2.2l0,0
		c13.6-1.2,27.9-3.5,43.2-7.3c3.6-0.9,7.2-1.9,10.9-3.1c-3.7,1.3-7.2,2.4-10.8,3.4c-15,4.3-29.2,7-42.7,8.7l0,0
		c-31.4,3.7-60.6,3.4-88,1.2l0,0c-15.3-1.2-30.2-3-44.9-5.1c14.8,2.9,29.9,5.4,45.3,7.4c27.8,3.6,57.5,5.2,90,2.6l0,0
		c13.9-1.1,28.7-3.5,44.4-7.5c1.1-0.3,2.2-0.6,3.4-0.9c-1.1,0.3-2.2,0.6-3.3,0.9c-15.6,4.3-30.2,7-44,8.4l0,0
		c-32.3,3.4-62,2.6-89.7-0.2l0,0c-16.6-1.6-32.7-3.9-48.6-6.6c16,4.4,32.5,8.4,49.6,11.7l0,0c28.6,5.7,59.6,9.2,94.1,8.1l0,0
		c11.8-0.4,24.3-1.6,37.6-4c-13.1,2.8-25.4,4.5-37.1,5.4l0,0c-34.1,2.4-65,0.5-93.5-3.7l0,0c-20.1-2.9-39.5-6.6-58.3-10.9
		c18.9,5.1,38.5,9.6,58.8,13.2l0,0c28.8,5.3,60.2,8.2,95.2,6.7l0,0c11.7-0.6,24.1-2,37.3-4.5c-12.9,2.9-25.2,4.8-36.7,5.9
		c-34.5,3-65.8,1.7-94.5-2.1l0,0c-21.1-2.6-41.4-6.2-61.1-10.4c19.9,6,40.6,11.4,62.2,15.7l0,0c29.5,6.1,61.9,9.8,98.4,8.7l0,0
		c7.3-0.2,14.9-0.8,22.8-1.8c-7.8,1.1-15.4,1.8-22.7,2.2c-36.2,1.8-68.6-1.2-98-6.6l0,0c-21.8-3.9-42.6-8.7-62.8-14.3
		c20.3,7.4,41.6,14,63.9,19.7l0,0c30.2,7.8,63.6,13.1,101.9,13.3l0,0c4.2,0,8.5-0.1,12.9-0.3c-4.4,0.3-8.6,0.6-12.8,0.7
		c-37.8,1-71.1-3-101.2-9.6l0,0c-24.7-5.2-48.1-11.7-70.6-19.1c22.6,8.9,46.3,16.8,71.5,23.5l0,0c30.7,8.4,64.9,14.1,104.2,14.6
		c0.4,0,0.8,0,1.2,0c-0.4,0-0.8,0-1.2,0l0,0c-38.9,0.5-73-4.2-103.6-11.5l0,0c-27.2-6.3-52.8-14.1-77.1-23
		c24.6,11.2,50.6,21.3,78.5,29.9c27.9,8.8,58.9,15.4,94.4,17.9c-35-1.3-65.8-6.6-93.6-14.2c-28.9-7.6-55.9-16.9-81.5-27.3
		c25.8,13.2,53.3,25.2,83.1,35.6c23.8,8.4,49.9,15.3,79.3,19.4c-28.9-2.5-54.7-7.6-78.3-14.3c-33.5-9.3-64.3-20.7-93.2-33.5
		c29.2,15.8,60.5,30.3,95.1,42.5c19.8,7.2,41.3,13.3,65,17.6c-23.6-3.9-45-9.5-64.7-16.3c-35.5-11.8-67.8-26-97.8-41.7
		c30.3,19.5,63.3,37.6,100.2,53.2c14.4,6.2,29.7,11.9,46.3,16.7c-16.4-4.2-31.6-9.3-45.9-14.9c-38.9-14.9-73.6-32.7-105.6-52
		c32.3,23.7,67.8,45.8,108.2,65c11.3,5.5,23.3,10.7,36,15.3c-12.5-3.8-24.3-8.1-35.5-12.7c-40.8-16.4-77-35.9-110.1-57l0,0
		c-1.2-0.8-2.5-1.6-3.7-2.4c1.2,0.9,2.5,1.9,3.7,2.8c33.3,24.9,70.2,48,112.3,68l0,0c6.4,3.1,13,6.1,19.8,9
		c-6.7-2.5-13.3-5.1-19.6-7.9c-41.8-17.6-78.5-38.4-111.9-60.8l0,0c-4.2-2.8-8.3-5.6-12.4-8.4c4.1,3.7,8.3,7.3,12.6,10.9
		c32.7,27.9,69,54.2,111.1,77.5c-41.6-21.3-77.9-45.6-110.6-71.6c-6-4.7-11.9-9.5-17.7-14.3c5.8,5.9,11.8,11.7,17.9,17.5
		c29.7,28.3,62.6,55.2,100.5,79.8c-37.2-21.1-70-44.5-99.7-69.2c-8.9-7.4-17.7-15-26.2-22.6c8.6,9.6,17.5,19.1,26.6,28.4
		c24.6,25.4,51.7,49.8,82.1,72.8c-29.8-19.3-56.7-40-81.3-61.6c-13-11.4-25.5-23-37.6-34.8c12.1,14,24.8,27.9,38,41.5
		c20.5,21.2,42.7,41.7,67.1,61.3c-24.1-17.4-46.2-35.7-66.6-54.6c-15.9-14.6-31-29.6-45.5-44.8c14.6,20.2,30.1,40.1,46.5,59.6
		c13.3,15.9,27.4,31.5,42.4,46.7c-15-14.9-29.1-30.1-42.3-45.5c-17.6-20.4-34-41.1-49.5-62.2c15.6,27,32.5,53.6,50.8,79.9
		c7.9,11.4,16.1,22.6,24.6,33.8c-8.3-9-16.4-18-24.1-27.2C606.7,665,585.5,637.2,566,609L566,609z"/>
</g>
<g id="g63751" class="st0">
	<path id="path66153" class="st2" d="M576.8,560.8c7.9,26.8,16.7,53.4,26.5,79.9c0.5,1.2,0.9,2.5,1.4,3.7
		c-17.9-22.7-34-45.9-48.5-69.6c-1.4-2.3-2.8-4.6-4.2-6.9c-1.8,24.7-3.8,49.5-5.9,74.2c-0.3,3.8-0.6,7.6-1,11.4
		c-0.5-2.1-1.1-4.2-1.6-6.4c-0.1-0.5-0.2-0.9-0.3-1.4c-5.1-20.3-9.8-40.6-14-61c-1.2-5.8-2.4-11.6-3.6-17.5
		c-7.5,20.3-15.6,40.6-24.1,60.7c-3.1,7.3-6.3,14.6-9.5,21.9c1.6-20.1,3.2-40.2,4.8-60.3c0.7-9.1,1.5-18.2,2.2-27.2
		c-6.3,8.2-12.9,16.3-19.6,24.3c-3.7,4.4-7.5,8.8-11.3,13.2c-6.5,7.4-13.1,14.8-20,22.1c-4.6,4.9-9.2,9.7-14,14.4
		c7.9-14.6,15.4-29.4,22.6-44.2c5.8-11.9,11.3-23.8,16.7-35.7c0.2-0.5,0.5-1.1,0.7-1.6c0.2-0.5,0.5-1,0.7-1.5
		c-0.2,0.1-0.3,0.3-0.5,0.4c-0.2,0.1-0.4,0.3-0.6,0.4c-11,8.3-22.5,16.4-34.4,24.2c-16.3,10.7-33.4,20.9-51.5,30.4l0,0l0,0
		c-0.4,0.2-0.9,0.5-1.3,0.7c-0.9,0.5-1.8,0.9-2.7,1.4c0.4-0.4,0.9-0.7,1.3-1.1c1.1-0.9,2.1-1.8,3.2-2.8c5.7-5.1,11.3-10.2,16.8-15.3
		c17-16,32.8-32.5,47.6-49.5c-3.5,1.5-6.9,3-10.4,4.4c-14,5.8-28.6,11.1-43.6,16c-2.7,0.9-5.4,1.7-8.1,2.6
		c-14.9,4.6-30.5,8.6-46.9,11.8c2.3-0.8,4.6-1.7,6.8-2.6c18.1-7,35-15,50.9-23.5c0.9-0.5,1.7-0.9,2.6-1.4
		c12.1-6.5,23.7-13.4,34.9-20.5c-0.2,0-0.5,0.1-0.7,0.1c-10.6,2.1-21.4,4-32.3,5.7c-0.3,0-0.5,0.1-0.8,0.1l0,0l0,0
		c-20.8,3.1-42.7,5.1-65.7,5.3c-2.9,0-5.8,0-8.7,0c-3.5,0-7.1-0.1-10.8-0.2c-0.7,0-1.3-0.1-2-0.1c3.8-0.5,7.5-1.1,11.1-1.8
		c0.9-0.2,1.8-0.3,2.7-0.5l0,0l0,0c20.1-3.8,38.9-8.8,56.8-14.7c7.2-2.4,14.3-5,21.3-7.6l0,0l0,0c3.3-1.3,6.7-2.6,9.9-3.9
		c2-0.8,4-1.6,6-2.5c-2.8,0.1-5.6,0.3-8.4,0.4c-2,0.1-4.1,0.1-6.2,0.2l0,0l0,0c-10.7,0.3-21.5,0.3-32.5-0.1
		c-11.5-0.4-23.2-1.2-35.1-2.5l0,0l0,0c-5.2-0.5-10.5-1.2-15.9-2c-8.1-1.2-16.3-2.8-24.7-4.9c5.3,0.6,10.5,1,15.6,1.3
		c9.3,0.5,18.3,0.5,27,0.2c7.5-0.2,15-0.7,22.3-1.3c16.2-1.4,31.8-3.6,46.9-6.4c0.7-0.1,1.5-0.3,2.2-0.4c2-0.4,4-0.8,6.1-1.2
		c-0.6-0.1-1.1-0.1-1.7-0.2c-2-0.3-4-0.5-6-0.8c-3.6-0.5-7.2-1-10.9-1.6c-16.8-2.6-33.6-5.9-50.5-10.4c-2.3-0.6-4.5-1.2-6.8-1.8
		c-14.8-4.1-29.7-9.4-44.5-16.2c1.7,0.5,3.3,0.9,5,1.4c16.9,4.6,33.4,7.2,49.4,8.7c0.9,0.1,1.9,0.2,2.8,0.3
		c20.3,1.8,40.2,2.1,59.7,1.4l0,0l0,0c0.2,0,0.5,0,0.7,0c0,0,0,0,0.1,0c-0.2-0.1-0.4-0.1-0.6-0.2c0,0-0.1,0-0.1,0
		c-15.5-5.1-30.7-10.8-45.4-17.3c-3.2-1.4-6.3-2.8-9.5-4.3c-12-5.7-23.7-12-34.5-19c-3.1-2-6.1-4.1-9-6.3c10.8,5.5,22,10,33.6,13.8
		c4.2,1.4,8.5,2.7,12.7,4c12.6,3.7,25.4,6.7,38.3,9.3c5.8,1.2,11.7,2.2,17.6,3.2l0,0l0,0c0.3,0.1,0.6,0.1,1,0.2
		c0.2,0,0.4,0.1,0.6,0.1c-0.3-0.2-0.6-0.3-0.8-0.5c-0.2-0.1-0.4-0.2-0.7-0.4l0,0l0,0c-8.1-4.6-16-9.3-23.6-14.2
		c-8.7-5.6-17-11.4-24.8-17.5c-4.6-3.6-8.9-7.2-13.1-10.8c-5.6-5-10.8-10.1-15.2-15.3c3.5,2.4,7.2,4.8,11.1,7
		c6.4,3.7,13.2,7.3,20.4,10.7c5.2,2.5,10.6,4.8,16,7.1c10.9,4.5,22.3,8.6,34,12.4l0,0l0,0c0.6,0.2,1.2,0.4,1.9,0.6
		c1.9,0.6,3.9,1.2,5.8,1.8c-0.5-0.4-0.9-0.7-1.4-1.1c-1.9-1.5-3.7-3-5.5-4.4c-2.4-2-4.9-4-7.2-6c-12.9-11-24.5-22.4-34.4-34.1l0,0
		l0,0c-0.4-0.4-0.7-0.9-1.1-1.3c-5-6-9.3-12-12.8-17.9c0.1,0.1,0.2,0.2,0.3,0.3c4.3,4.5,9.4,9,15,13.6c0.1,0.1,0.3,0.2,0.4,0.3
		c11.9,9.6,25.6,18.5,40.3,27c1.1,0.6,2.1,1.2,3.2,1.8c4.2,2.3,8.4,4.6,12.7,6.9c0.5,0.3,1.1,0.6,1.6,0.8c-3.6-4.5-7.1-9-10.5-13.5
		c-0.6-0.8-1.2-1.7-1.9-2.5c-10.8-14.7-20.1-29.5-27.2-44.4c-1.8-3.7-3.4-7.4-4.9-11.2l0,0l0,0c-0.3-0.7-0.5-1.4-0.8-2.1
		c-0.1-0.3-0.2-0.6-0.3-0.8c0.3,0.5,0.6,1,0.9,1.4c0.2,0.2,0.3,0.5,0.5,0.7c5.7,8.6,12.6,17,20.3,25.4c4.7,5.1,9.8,10.1,15.1,15.1
		c4.3,4,8.6,7.9,13.2,11.8c3.3,2.8,6.7,5.6,10.1,8.4c-3.8-6.8-7.3-13.6-10.7-20.4c-2.9-6-5.7-12-8.3-18c-2.9-6.6-5.5-13.2-7.9-19.8
		c-2.5-6.9-4.6-13.8-6.4-20.7c2.2,4,4.5,8,7.1,12.1c3.2,5,6.7,10.1,10.4,15.1c4.2,5.7,8.7,11.4,13.4,17c7,8.4,14.6,16.7,22.6,24.9
		c-3.3-10.2-6.4-20.4-9.2-30.5c-5.1-18.5-9.1-37-12.2-55.5c2.7,7.3,5.7,14.6,9,21.8c7.2,16.1,15.7,32,25.2,47.8
		c0.4,0.7,0.8,1.4,1.3,2.1c1.2,1.9,2.4,3.9,3.6,5.8c-0.2-2.4-0.3-4.7-0.5-7.1c-0.5-8.3-1-16.5-1.4-24.8c-0.2-3.1-0.3-6.3-0.4-9.4
		c-0.6-14.5-1-29.1-1.2-43.6c0.2,1,0.5,1.9,0.7,2.9c1.5,6.3,3.1,12.5,4.9,18.8c0.5,1.8,1,3.7,1.5,5.5c5.3,18.9,11.5,37.8,18.4,56.5
		c0.1-1.3,0.2-2.6,0.3-4c2.1-28.4,4.2-56.7,6.3-85.1c3.5,28.4,7.9,56.7,13.3,85c0.3,1.3,0.5,2.6,0.8,3.9c2.9-10.6,5.7-21.3,8.3-31.9
		c0.3-1,0.5-2.1,0.8-3.1c3.7-14.9,7-29.8,10.1-44.8c0.5-2.3,0.9-4.6,1.4-6.9c-0.5,24.5-1,49-1.5,73.5c-0.1,5.3-0.2,10.6-0.4,15.9
		c11.1-20.2,21-40.7,29.3-61.5c2.4-5.9,4.7-11.9,6.8-17.8c-2.8,20.7-6.2,41.4-10.3,62c-1.5,7.5-3.1,15-4.7,22.5
		c5-6.4,9.9-12.8,14.5-19.3c2.1-2.9,4.1-5.9,6.1-8.9c6.5-9.6,12.3-19.3,17.3-29.1c2.8-5.4,5.3-10.8,7.6-16.2
		c-3.1,13.8-7.2,27.7-12.2,41.4c-3.3,9.2-7,18.3-11,27.5c-1,2.4-2.1,4.8-3.2,7.2c-0.9,1.9-1.7,3.8-2.6,5.7c1.1-0.9,2.2-1.9,3.3-2.8
		c1-0.9,2.1-1.8,3.1-2.7l0,0l0,0c6.6-5.9,12.9-11.8,18.7-17.9c7.9-8.3,15.1-16.7,21.1-25.4c1.4-2,2.8-4.1,4-6.1
		c2-3.3,3.8-6.6,5.3-9.8c-0.6,2.5-1.2,5.1-2,7.7c-1.6,5.1-3.5,10.3-5.8,15.6c-2.3,5.3-4.8,10.6-7.6,15.8
		c-6.8,12.9-14.9,25.7-24,38.3c3.3-1.9,6.6-3.9,9.8-5.8c9.9-6.1,19.2-12.5,27.7-19.1c2.3-1.8,4.5-3.7,6.6-5.5
		c8.4-7.3,14.9-14.7,18.8-22.1l0,0l0,0c0,0,0-0.1,0-0.1c0.1-0.3,0.3-0.5,0.4-0.8c0,0,0,0.1,0,0.1c-0.1,0.4-0.2,0.8-0.3,1.1l0,0l0,0
		l0,0c-3.1,12-10.7,24.2-20.9,36.4c-0.7,0.9-1.5,1.7-2.2,2.6l0,0l0,0c-7,8.1-14.9,16.1-23.3,23.8c-1.6,1.4-3.1,2.8-4.7,4.2
		c8.7-3.3,17-6.8,25.1-10.5c2-0.9,4-1.9,6-2.8l0,0l0,0c9.4-4.7,18-9.5,25.4-14.6c3-2.1,5.7-4.2,8.3-6.4c2.4-2.1,4.5-4.2,6.1-6.2
		c0.8-1,1.5-2,2.1-2.9c0-0.1,0.1-0.1,0.1-0.2c0,0,0-0.1,0.1-0.1c0,0.1,0,0.2-0.1,0.2c0,0.1,0,0.1,0,0.2c-0.5,2.2-1.5,4.4-2.7,6.7
		c-1.1,2-2.4,4.1-3.9,6.2c-3.8,5.2-8.6,10.3-13.9,15.2c-5.6,5.2-11.9,10.3-18.6,15.2l0,0l0,0c-2.8,2.1-5.7,4.1-8.7,6.2
		c-4.4,3-9,6-13.7,8.9c2.9-0.5,5.8-1.1,8.7-1.7c5.3-1.1,10.5-2.3,15.6-3.6l0,0l0,0c4-1,7.9-2,11.7-3.1c10.5-3,20.5-6.5,29.7-10.6
		c1.2-0.5,2.3-1.1,3.5-1.6c4-1.9,7.6-3.9,11-6c0.4-0.3,0.9-0.6,1.3-0.9c2-1.3,3.8-2.6,5.3-3.9c-0.2,0.3-0.4,0.6-0.6,0.9
		c-1.3,1.9-2.9,3.9-4.8,5.9c-0.3,0.4-0.7,0.7-1,1.1c-3.5,3.6-7.6,7.1-12.2,10.5c-0.5,0.4-1.1,0.8-1.6,1.2
		c-11.5,8.3-24.9,15.6-39.1,22.3l0,0l0,0c-5.6,2.6-11.2,5.1-17,7.5c-0.6,0.2-1.1,0.5-1.7,0.7c5.8-0.1,11.6-0.4,17.4-0.8
		c0.9-0.1,1.8-0.1,2.7-0.2l0,0l0,0c12.7-0.9,25.4-2.3,38.1-4.8c3.6-0.7,7.2-1.5,10.8-2.4c5-1.2,10.1-2.7,15-4.4
		c1.8-0.6,3.6-1.3,5.4-2c4-1.6,8-3.4,12-5.5c1.8-0.9,3.5-2,5.2-3c-3.1,2.7-6.4,5.2-9.9,7.5c-1.9,1.3-3.8,2.5-5.8,3.6
		c-3.8,2.2-7.6,4.2-11.6,6.1c-2.6,1.3-5.3,2.4-7.9,3.6c-8.7,3.7-17.6,6.8-26.7,9.5c-7.2,2.2-14.5,4.1-21.8,5.8
		c-3.5,0.8-7.1,1.6-10.6,2.4c-3.4,0.7-6.8,1.4-10.2,2c3.4,0.4,6.8,0.8,10.3,1.2c3.9,0.4,7.9,0.8,11.9,1.1c7.5,0.6,15.2,1,23,1.1
		c10.7,0.1,21.7-0.3,33-1.6c3.2-0.4,6.4-0.8,9.6-1.3c5.4-0.9,10.9-2.1,16.5-3.6c1.8-0.5,3.6-1,5.4-1.6c3.7-1.2,7.4-2.5,11.2-4.2
		c-1.5,0.9-3,1.7-4.5,2.5c-3.7,2-7.3,3.7-10.9,5.2c-2.1,0.9-4.2,1.7-6.2,2.5c-6.4,2.5-12.6,4.5-18.8,6.1c-3.8,1-7.6,2-11.3,2.8
		c-15,3.4-29.7,5.5-44,6.8l0,0l0,0c-1.2,0.1-2.3,0.2-3.5,0.3c-9.2,0.8-18.4,1.3-27.4,1.6c0.7,0.2,1.4,0.4,2.1,0.6
		c10,3,20.3,5.7,30.9,8c0.4,0.1,0.9,0.2,1.3,0.3c18.7,4.1,39,6.9,61.5,6.8c0.5,0,1.1,0,1.6,0c7.8-0.1,16-0.7,24.8-2.1
		c0.6-0.1,1.3-0.2,1.9-0.3c-7.9,2.2-15.5,3.9-22.7,5c-0.9,0.1-1.8,0.3-2.7,0.4l0,0l0,0c-18.2,2.6-35.3,3.3-51.3,2.9
		c-4-0.1-7.9-0.3-11.8-0.5c-10.9-0.6-21.6-1.6-32-2.9c-3.4-0.4-6.7-0.9-10.1-1.3c10.2,5.8,20.8,11.3,31.9,16.5
		c4.5,2.1,9.1,4.1,13.8,6.1c11.9,5.1,24.7,9.6,38.7,13.3c7,1.8,14.3,3.4,21.9,4.7c-13.4-0.3-26-1.4-37.7-3.2
		c-7.2-1.1-14-2.4-20.6-3.9c-12.6-2.8-24.7-6-36.4-9.6c-8.5-2.6-16.8-5.4-24.9-8.4c10.7,9.5,22.1,18.7,34.2,27.6
		c10.6,7.7,21.8,15.2,33.6,22.3c2.6,1.6,5.3,3.2,8,4.7c2.9,1.6,5.8,3.2,8.8,4.7c-2.4-0.6-4.8-1.3-7.2-2c-2.9-0.8-5.8-1.7-8.7-2.7
		l0,0l0,0c-9.9-3.1-19.3-6.4-28.5-10c-16.6-6.5-32.2-13.7-46.9-21.3l0,0l0,0c-1.4-0.7-2.7-1.4-4-2.1c-3.7-1.9-7.3-3.9-11-5.9
		c1.1,1.7,2.3,3.4,3.5,5.1c4.1,5.9,8.3,11.8,12.6,17.6c2.2,3.1,4.5,6.1,6.9,9.1c10.7,14.1,22.3,27.8,34.8,41.3
		c-1.9-1.2-3.8-2.5-5.7-3.7c-12.2-8.1-23.6-16.5-34.4-25.3c-1.3-1.1-2.6-2.1-4-3.2C601.6,583.6,588.8,572.3,576.8,560.8L576.8,560.8
		L576.8,560.8z M581.8,568.5c9,30.3,19,60.5,30.1,90.6c0,0.5,0,1,0,1.5c-20.2-25.8-38.3-52.1-54.8-78.9c-1.1-0.8-2.3-1.5-3.4-2.3
		c-2.1,28-4.3,56.1-6.7,84.1c-0.3,2.7-0.6,5.4-0.8,8.2c-0.6-2.4-1.2-4.8-1.8-7.2c-0.5-2.1-1.1-4.2-1.6-6.4
		c-5.7-23-10.9-46.1-15.7-69.2c-1.8-2-3.6-4-5.4-6c-8.7,23-17.9,46-27.8,68.7c-2.1,2.5-4.2,5-6.4,7.5c1.8-22.8,3.7-45.6,5.5-68.3
		c-0.6-5.3-1.3-10.6-1.9-15.9c-7.3,9.2-14.7,18.4-22.4,27.5c-4.2,5-8.6,10-13,15c-7.4,8.4-15,16.7-22.9,24.9
		c-1.2-0.4-2.6-0.9-4.2-1.4c8.7-16.6,17.1-33.4,25.1-50.3c4.4-9.1,8.7-18.2,12.8-27.3c0.3-0.6,0.5-1.2,0.8-1.8
		c0.1-0.3,0.2-0.7,0.3-1c-0.2,0.1-0.4,0.3-0.6,0.4c-0.1,0.1-0.3,0.2-0.4,0.3c-8.3,6.2-16.9,12.3-25.8,18.2
		c-18,12.4-36.9,24.2-57,35.4c-4.2,2.6-8.6,5.1-13.1,7.5l0,0c-0.3,0.2-0.7,0.4-1,0.5c-1,0.5-2,1.1-3.1,1.6c0.2-0.2,0.3-0.4,0.5-0.6
		c1.2-1,2.4-2.1,3.6-3.1c4.4-3.9,8.8-7.9,13-11.9c19.5-18,37.7-36.6,54.7-55.7c-1-0.6-2.1-1.2-3.2-1.8
		c-15.8,6.6-32.2,12.8-49.2,18.4c-3.1,1-6.3,2.1-9.5,3.1c-16.8,5.3-34.3,9.9-52.9,13.6c0.9-0.5,1.8-0.9,2.7-1.4
		c20.6-7.9,39.9-16.8,58-26.5c1.1-0.6,2.2-1.2,3.3-1.8c13.7-7.4,26.9-15.1,39.7-23.2c-0.1,0-0.2-0.1-0.2-0.1
		c-12,2.4-24.2,4.6-36.6,6.4c-0.2,0-0.4,0.1-0.6,0.1l0,0c-0.6,0.1-1.2,0.2-1.8,0.3c-23.7,3.5-48.5,5.6-74.8,5.7c-2.2,0-4.3,0-6.5,0
		c-2.7,0-5.4,0-8.1-0.1c-0.8,0-1.5,0-2.3-0.1c1.5-0.4,3-0.9,4.4-1.5c1-0.2,2.1-0.4,3.1-0.5c1.4-0.2,2.7-0.4,4-0.7l0,0
		c15.1-2.8,29.2-6.6,42.6-11c8.6-2.4,16.9-5,25.1-7.7c6.9-1.7,13.3-3.8,19.5-6.2l0,0c2.5-1,5-1.9,7.5-2.9c2.3-0.9,4.5-1.8,6.8-2.7
		c-0.9-0.4-1.8-0.8-2.8-1.2c-2.3,0.1-4.6,0.2-7,0.3c-1,0-2,0.1-3,0.1l0,0c-8,0.2-16.1,0.2-24.4,0c-12.9-0.2-26-0.8-39.4-1.9
		c-3.9-0.2-7.8-0.4-11.7-0.9l0,0c-3.9-0.4-7.9-0.9-11.9-1.5c-9-1.2-18.3-2.9-27.7-5c2.1,0.1,4.1,0,6.1-0.2c10.7,0.8,21,1,31,0.8
		c7.3-0.2,14.5-0.5,21.6-1c18.5-1.2,36.4-3.5,53.7-6.4c2.9-0.4,5.7-0.9,8.5-1.4c2.3-0.4,4.6-0.9,6.9-1.3c-0.2-0.1-0.4-0.2-0.6-0.3
		c-2.3-0.3-4.5-0.6-6.8-0.9c-2.9-0.4-5.8-0.8-8.7-1.2c-19-2.8-38.1-6.5-57.2-11.4c-2.7-0.7-5.5-1.4-8.2-2.2
		c-16.7-4.6-33.6-10.4-50.5-18c0.7,0.1,1.3,0.2,2,0.3c19.2,5.3,37.9,8.4,56.1,10.2c1,0.1,2,0.2,3,0.3c23,2.1,45.5,2.5,67.7,1.7
		c0.1,0,0.2,0,0.3,0c0,0,0,0,0,0c0.1,0,0.2-0.1,0.3-0.1c0,0,0,0,0.1,0c-0.2-0.1-0.3-0.1-0.5-0.2c-1-0.3-2-0.7-3-1
		c-17.5-5.9-34.7-12.4-51.3-19.9c-3.4-1.6-6.8-3.1-10.2-4.8c-13.5-6.6-26.6-13.8-38.7-22c-1.1-0.9-2.1-1.9-3-2.9
		c12.3,6,25.2,10.9,38.4,15.1c5,1.6,10.1,3.1,15.2,4.5c14.3,4,28.9,7.2,43.6,10c4.4,0.9,8.8,1.7,13.2,2.4l0,0c0.1,0,0.1,0,0.2,0
		c0.4,0.1,0.7,0.1,1.1,0.2c0.1,0,0.2,0,0.3,0c-0.3-0.2-0.6-0.4-0.9-0.5c-0.2-0.1-0.3-0.2-0.5-0.3l0,0c-3.2-1.8-6.4-3.7-9.4-5.7
		c-9-5.3-17.7-10.8-26-16.5c-6.5-4.2-12.8-8.6-18.6-13.1c-3.4-2.7-6.7-5.4-9.8-8.1c-6.6-5.6-12.7-11.4-18.1-17.2
		c1.3,0.5,2.8,1,4.6,1.4c7,4.3,14.6,8.4,22.6,12.4c5.3,2.6,10.8,5.1,16.3,7.5c12.2,5.3,24.9,10.1,38.1,14.5c1.9,0.7,3.8,1.3,5.7,2
		l0,0c0.5,0.2,0.9,0.3,1.4,0.5c2.2,0.7,4.4,1.4,6.6,2.1c-0.2-0.2-0.3-0.4-0.5-0.6c-2.1-1.7-4.2-3.3-6.3-5c-2-1.6-3.9-3.2-5.8-4.9
		c-14.7-12.4-28.2-25.3-39.5-38.5c-0.5-0.6-1-1.2-1.5-1.8l0,0c-0.3-0.3-0.5-0.6-0.8-1c-5.7-6.8-10.6-13.6-14.5-20.3
		c0,0,0.1,0,0.1,0.1c4.9,5.1,10.7,10.2,17.1,15.4c0.2,0.2,0.4,0.3,0.6,0.5c13.5,10.8,29.1,20.9,45.9,30.5c0.9,0.5,1.8,1,2.7,1.6
		c4.7,2.7,9.5,5.3,14.4,7.8c0.2,0,0.4,0,0.7,0c-4.1-5.1-8.1-10.2-11.9-15.3c-1.3-1.7-2.5-3.4-3.7-5.2c-12-16.6-22.2-33.5-29.8-50.4
		c-1.3-2.8-2.5-5.6-3.6-8.4l0,0c0-0.1-0.1-0.2-0.1-0.3c-0.3-0.8-0.6-1.6-0.9-2.3c0-0.1-0.1-0.3-0.1-0.4c0.3,0.5,0.7,1.1,1.1,1.6
		c1.3,1.9,2.7,3.9,4.3,5.8c6.9,9.7,15.2,19.2,24.4,28.6c4.6,4.8,9.5,9.6,14.6,14.3c4.9,4.5,9.9,8.9,15.1,13.3
		c1.3,0.1,2.8,0.1,4.3,0.1c-4.1-7.7-8.1-15.4-11.7-23.2c-3.3-6.9-6.3-13.8-9.1-20.7c-3.1-7.5-5.8-15-8.3-22.5
		c-0.9-3.4-1.5-6.8-1.7-10.2c2.6,4.6,5.5,9.1,8.5,13.7c4.6,6.8,9.7,13.6,15.1,20.3c5,6.4,10.4,12.8,15.9,19.1
		c3.1-0.3,6.9-0.6,11.4-1.1c-3.4-11.5-6.5-23.1-9.2-34.6c-1.6-8.1-2.1-16.2-1.3-24.3c3.5,8.2,7.3,16.4,11.4,24.6
		c5.8,12.8,12.6,25.4,20.1,38c0.5,0.8,1,1.6,1.5,2.4c0.7-1.5,1.4-3.1,2.1-4.6c-0.2-2.7-0.3-5.4-0.5-8c-0.7-11.5-1.2-22.9-1.6-34.4
		c-0.1-3.6-0.3-7.1-0.4-10.7c0.1-8.6,0.3-17.2,0.8-25.8c0.3,1.1,0.5,2.2,0.8,3.3c3,11.6,6.4,23.2,10.2,34.7c0.6,2.1,1.3,4.2,1.9,6.3
		c4.8,3.8,10.1,7.6,16.1,11.3c0.1-1.5,0.2-3,0.3-4.5c2.9-10.4,6.2-20.8,9.9-31.2c3.8,17,8.2,34,13.3,50.9c0.3,0.7,0.5,1.4,0.8,2.1
		c3.6-14,7.1-28,10.3-42c0.2,0.2,0.3,0.5,0.5,0.7c2.5-1.3,4.9-2.6,7-3.9c1.1-3.1,2.2-6.1,3.2-9.2c4,10.1,7.3,20.2,9.9,30.1
		c-0.3,5.9-0.7,11.8-1.1,17.7c7.1-6.8,12.9-13.7,17.3-20.9c2.4-5.2,4.7-10.5,6.9-15.7c-0.1,12.9-0.8,25.8-2,38.6
		c-0.1,4.1-0.3,8.2-0.6,12.3c6.2-8.8,11.9-17.6,17-26.5c0.9,0.5,1.7,1.1,2.4,1.6c3.1-1.5,5.4-3.1,6.7-4.8c1.8-3.5,3.5-6.9,4.9-10.4
		c-2.8,11.4-6.3,22.7-10.5,34c-2.2,6.6-4.6,13.2-7.3,19.8c-0.3,1.4-0.7,2.8-1,4.2c-0.7,1.4-1.3,2.9-2,4.3c0.8-0.7,1.6-1.4,2.5-2.1
		c3.7-3.3,7.2-6.6,10.5-10c2.4-2.6,4.5-5.2,6.4-7.9c0.8-1.1,1.5-2.2,2.1-3.3c5.4-5.3,10.6-10.6,15.3-16c5.6-4.5,10.4-9.2,14.3-13.9
		c0.7-0.4,1.2-0.8,1.7-1.2c-0.4,1.9-1.4,3.8-3,5.6c-1.9,4.2-3.9,8.4-6.1,12.6c2.3,1.8,4.2,3.7,5.5,5.4c-0.4,3-1,6-1.8,9
		c-1.9,7.2-5.4,14.3-10.4,21.2c3.2-2.3,6.2-4.6,9-7c7.5-4.6,14.4-9.3,20.8-14.4c1.7-1.4,3.4-2.8,5-4.1c6.3-5.6,11.3-11.2,14.2-16.9
		c0,0,0,0,0-0.1c0,0.1-0.1,0.3-0.1,0.4c0,0,0,0,0,0c0.1-0.2,0.2-0.4,0.3-0.6c0,0,0,0,0,0.1c-1.2,4.9-4.3,9.9-8.4,14.8
		c-0.1,0.1-0.2,0.2-0.3,0.3l0,0c-0.1,0.1-0.1,0.2-0.2,0.2c-5.3,12.5-14.5,24.9-25.8,37.3c-0.3,0.5-0.5,1.1-0.8,1.6
		c3.7-1.4,7.2-2.9,10.6-4.6l0,0c-5.3,6.1-11.2,12.1-17.5,17.8c-0.4,0.7-0.8,1.3-1.2,2c10.4-4.5,20.1-9.3,28.8-14.4
		c1.8-0.9,3.5-1.9,5.3-2.9c1-0.9,1.7-1.8,2.2-2.6c0,0,0,0,0,0c7.1-3.5,13.5-7.2,19.1-11c2.2-1.5,4.3-3.1,6.2-4.8
		c1.8-1.6,3.3-3.1,4.5-4.5c0.5-0.2,0.8-0.4,1-0.6c-0.4,1-1,2-1.8,3c0,0,0-0.1,0-0.1c0,0.1,0,0.1,0,0.2c-1.3,1.8-2.8,3.5-4.6,5.2
		c-2.6,3.7-5.8,7.4-9.4,11.1c-0.8,1.5-1.8,3-3,4.6c-2.9,3.9-6.4,7.7-10.4,11.4c-5.6,4.9-11.7,9.7-18.3,14.4
		c-1.3,0.9-2.6,1.7-3.9,2.5c1.8-0.3,3.5-0.7,5.2-1.1c-0.9,1.3-1.8,2.5-2.8,3.7c-3.3,2.3-6.8,4.5-10.3,6.7c2.2-0.4,4.4-0.8,6.6-1.3
		c7.6-1.7,15-3.7,22.2-5.8c1.6-0.6,3.2-1.2,4.7-1.9c1.4-0.6,2.7-1.3,3.9-2c3.4-1,6.8-2.1,10.1-3.2c8.6-2.7,16.7-5.7,24.2-9.3
		c1.1-0.5,2.1-1.1,3.1-1.6c2.6-0.8,4.8-1.6,6.7-2.5c0.2-0.1,0.4-0.1,0.5-0.2c0.3,0.3,0.3,0.5-0.1,0.7c-0.4,0.4-0.8,0.8-1.2,1.2
		c-4.9,4.4-10.7,8.5-17,12.3c-0.7,0.5-1.5,1-2.3,1.5c-2.6,2.7-5.7,5.3-9.1,7.9c-0.4,0.3-0.8,0.6-1.2,0.9
		c-10.9,7.3-23.2,13.8-36.2,19.7c2.5-0.1,4.9-0.2,7.4-0.4l0,0c-4.2,1.9-8.4,3.8-12.7,5.6c0.1,0.1,0.3,0.3,0.4,0.4
		c9.8-0.6,19.6-1.5,29.3-3.1c0.7,0,1.3-0.1,2-0.1l0,0c0.5-0.1,0.9-0.2,1.4-0.4c11.6-1.2,23.2-2.9,34.6-5.6c3.2-0.7,6.4-1.5,9.6-2.4
		c5.4-1.6,10.8-3.5,16.1-5.8c0.9,0,1.7-0.1,2.5-0.2c1.7-0.1,3.3-0.6,4.8-1.3c0.6-0.3,1.1-0.6,1.6-1c-3.9,2.9-8.1,5.5-12.3,7.9
		c-3.6,1.8-7.2,3.6-10.8,5.2c-6.5,2.9-13.2,5.5-19.9,7.8c-3,1.2-6.1,2.3-9.1,3.4c-8,3.1-16.2,5.7-24.4,8c-4.2,1.8-8.4,3.4-12.6,4.8
		c-1.2,0.8-2.4,1.5-3.6,2.2c0.8,0.8,1.7,1.5,2.6,1.9c5.9,0.3,11.9,0.4,18,0.3c4.7,0.1,9.4,0.1,14.2,0c7.1,0.2,14.2,0.2,21.6-0.2
		c9.2-0.2,18.7-0.9,28.4-2.3c3.2-0.6,6.4-1.2,9.7-2c2.8,0.1,5.7-0.2,8.7-0.7c0.7,0,1.4-0.2,2.1-0.3c0.6,0.1,1.2-0.2,1.9-0.8
		c-2,1-4.1,1.8-6.1,2.7c-2.8,1.5-5.5,2.8-8.2,3.9c-1.6,0.7-3.1,1.3-4.7,1.9c-10.3,3.3-20.4,5.8-30.2,7.7c-4.2,0.9-8.4,1.8-12.6,2.6
		c-11.3,2.6-22.3,4.1-33,5.1l0,0c-3.4,0.3-6.7,0.5-10,0.6c-1.3,0.1-2.6,0.2-3.9,0.3c-3.3,1.7-6.4,3.1-9.3,4.1
		c0.8,0.2,1.6,0.5,2.5,0.7c14.5,3.8,29.8,6.9,46.2,8.6c0.5,0.1,1.1,0.1,1.6,0.2c14,3.1,29.2,5.1,46.1,5.1c0.5,0,0.9,0,1.4,0
		c8.8-0.1,18.2-0.9,28.1-2.4c0.2,0,0.5,0,0.7,0c-9,2.5-17.5,4.3-25.7,5.6c-0.7,0.1-1.3,0.2-2,0.3l0,0c-1.4,0.2-2.7,0.4-4,0.5
		c-20.5,2.7-39.6,3.3-57.6,2.6c-3-0.1-6-0.2-8.9-0.4c-8.2-0.5-16.2-1.2-24-2.2c-3.9-0.4-7.7-0.8-11.6-1.3c3.8,4,7.9,7.7,12.6,11.1
		c5,2.5,10,4.9,15.2,7.2c12.7,5.8,26.3,11.1,40.9,15.6c7.5,2.3,15.4,4.4,23.5,6.3c-5.4,1.4-9.9,1.8-13.2,1.4
		c-8.5-0.9-16.6-2.1-24.5-3.5c-13.9-2.5-27.1-5.7-39.7-9.3c-9.9-2.7-19.6-5.7-29-8.9c3.8,5.9,8.3,11.5,13.4,16.7
		c11.5,9,23.7,17.7,36.6,26c6.2,4.3,12.7,8.5,19.5,12.5c3.2,1.9,6.5,3.7,9.8,5.5c-0.9,0.1-1.7,0.1-2.4,0.1c-3.4-0.9-6.7-1.9-9.9-2.9
		c-0.8-0.2-1.6-0.5-2.4-0.7l0,0c-7.4-2.3-14.5-4.8-21.4-7.5c-19.3-7-37.4-14.9-54.4-23.4c-2.9-1.3-5.7-2.7-8.4-4.1l0,0
		c-1-0.5-2-1.1-3-1.6c-4.2-2.2-8.3-4.4-12.4-6.7c0.4,1,0.9,2.1,1.3,3.1c4.6,6.7,9.3,13.4,14.2,20c2.1,2.8,4.1,5.6,6.3,8.4
		c12,16,25,31.6,39,46.9c-0.7-0.1-1.3-0.2-1.9-0.3c-13.9-9.1-26.9-18.7-39.2-28.5c-1.4-1.1-2.8-2.3-4.3-3.4
		c-15.3-12.4-29.8-25.2-43.5-38.2C582.3,569,582,568.8,581.8,568.5L581.8,568.5z M586.8,576.3c10,33.9,21.2,67.7,33.7,101.2
		c-0.4-0.2-0.9-0.5-1.3-0.7c-22.5-28.8-42.7-58.3-61-88.3c-0.9,0.8-1.7,1.6-2.5,2.4c-2.3,31.3-4.9,62.7-7.5,94
		c-0.2,1.6-0.5,3.3-0.7,4.9c-0.7-2.7-1.4-5.4-2-8c-0.9-3.8-1.9-7.6-2.8-11.4c-6.3-25.7-12-51.5-17.3-77.3c-2.4,1.8-4.7,3.6-7.1,5.4
		c-9.8,25.7-20.3,51.3-31.4,76.8c-1.1-2.3-2.2-4.6-3.3-6.9c2-25.5,4.1-50.9,6.2-76.4c-2-1.5-4-3-6-4.6
		c-8.2,10.3-16.6,20.5-25.3,30.6c-4.8,5.6-9.7,11.2-14.6,16.7c-8.4,9.3-17,18.6-25.9,27.7c2.1-5.7,3.9-11.4,5.6-17.2
		c9.6-18.7,18.7-37.4,27.5-56.3c3-6.3,6-12.6,8.8-18.9c0.3-0.7,0.6-1.3,0.9-2c0-0.1-0.1-0.3-0.1-0.4c-0.2,0.2-0.4,0.3-0.7,0.5
		c-0.1,0.1-0.2,0.1-0.3,0.2c-5.5,4.2-11.2,8.2-17.2,12.1c-19.7,14.1-40.5,27.6-62.4,40.3c-8.4,5.2-17.2,10.2-26.3,15l0,0
		c-0.2,0.1-0.4,0.2-0.7,0.4c-1.1,0.6-2.3,1.2-3.4,1.8c-0.1,0-0.2-0.1-0.3-0.1c1.3-1.2,2.7-2.3,4-3.5c3.1-2.8,6.2-5.6,9.2-8.4
		c22.1-20,42.6-40.7,61.8-62c1.4-2.6,2.7-5.3,4-8.1c-17.6,7.5-35.8,14.4-54.8,20.8c-3.6,1.2-7.1,2.4-10.8,3.5
		c-18.6,6-38.2,11.2-58.8,15.4c-0.5-0.1-1-0.2-1.5-0.3c23.2-8.7,44.7-18.7,65-29.4c1.4-0.7,2.7-1.4,4.1-2.2
		c15.4-8.2,30.1-16.9,44.4-25.9c0.1-0.1,0.2-0.2,0.2-0.3c-13.4,2.7-27.1,5.1-40.9,7.2c-0.1,0-0.3,0-0.4,0.1l0,0
		c-1.2,0.2-2.4,0.4-3.6,0.5c-26.5,3.8-54.4,6.1-83.9,6.1c-1.4,0-2.9,0-4.4,0c-1.8,0-3.6,0-5.4-0.1c-0.8,0-1.7,0-2.5,0
		c-0.7-0.3-1.5-0.7-2.3-1.1c1.2-0.2,2.3-0.4,3.5-0.6c2.7-0.4,5.4-0.9,8-1.4l0,0c10.1-1.9,19.5-4.4,28.4-7.4c9.9-2.4,19.5-5,28.9-7.8
		c13.7-3.4,26.6-7.7,38.9-12.4l0,0c1.7-0.6,3.3-1.3,5-2c2.6-1,5.1-2,7.6-3c1-0.9,1.9-1.8,2.8-2.7c-2.6,0.1-5.2,0.2-7.8,0.3
		c-2,0.1-4,0.1-6,0.2l0,0c-5.3,0.2-10.7,0.2-16.2,0c-14.3,0-28.8-0.4-43.7-1.4c-7.7-0.3-15.5-0.9-23.5-1.7l0,0
		c-2.6-0.3-5.2-0.6-7.9-1c-10-1.2-20.3-2.9-30.8-5.1c-1.1-0.4-2.2-1-3.5-1.8c12,1.1,23.6,1.5,34.9,1.4c7.1-0.1,14.1-0.4,21-0.8
		c20.9-1.1,41-3.4,60.5-6.5c5-0.7,9.9-1.6,14.8-2.5c2.6-0.5,5.1-1,7.7-1.5c0.2-0.1,0.4-0.3,0.6-0.4c-2.5-0.3-5-0.6-7.6-1
		c-2.2-0.3-4.3-0.6-6.5-0.9c-21.2-3-42.5-7-63.9-12.3c-3.2-0.8-6.5-1.6-9.7-2.5c-18.6-5-37.6-11.4-56.4-19.8c-0.3-0.3-0.7-0.6-1-0.9
		c21.4,6.1,42.4,9.6,62.7,11.6c1.1,0.1,2.1,0.2,3.2,0.3c25.7,2.4,50.9,2.8,75.7,2c0.2,0,0.4,0,0.6,0c0,0,0,0,0,0
		c0-0.1-0.1-0.1-0.1-0.2c0,0,0,0,0,0c-0.1,0-0.2-0.1-0.3-0.1c-1.9-0.6-3.9-1.3-5.8-2c-19.5-6.6-38.7-14-57.2-22.5
		c-3.7-1.7-7.4-3.4-11-5.2c-15.1-7.4-29.6-15.7-42.9-25c1,0.3,2,0.4,3.1,0.5c13.9,6.5,28.4,11.8,43.2,16.4c5.8,1.8,11.7,3.5,17.7,5
		c16.1,4.3,32.4,7.8,48.8,10.7c2.9,0.6,5.8,1.1,8.8,1.6l0,0c0.1,0,0.3,0,0.4,0.1c0.4,0.1,0.8,0.1,1.2,0.2c0-0.1-0.1-0.1-0.1-0.2
		c-0.3-0.2-0.7-0.4-1-0.6c-0.1-0.1-0.2-0.1-0.3-0.2l0,0c-6.5-3.7-12.8-7.5-18.9-11.4c-9.8-6.1-19.3-12.4-28.4-18.9
		c-4.3-2.8-8.5-5.7-12.4-8.8c-2.3-1.8-4.5-3.6-6.5-5.4c-7.6-6.2-14.7-12.6-21-19.1c-0.9-1.3-1.5-2.7-1.8-4.2
		c7.6,4.9,15.9,9.6,24.7,14.1c5.4,2.7,10.9,5.3,16.6,7.9c13.5,6.1,27.6,11.5,42.1,16.6c3.8,1.4,7.6,2.7,11.5,3.9l0,0
		c0.3,0.1,0.6,0.2,0.9,0.3c2.4,0.8,4.9,1.6,7.3,2.3c0.2-0.1,0.3-0.1,0.5-0.2c-2.4-1.9-4.7-3.7-7-5.6c-1.5-1.2-3-2.4-4.4-3.7
		c-16.6-13.8-31.8-28.1-44.6-43c-1-1.2-2.1-2.4-3.1-3.5l0,0c-0.2-0.2-0.4-0.4-0.5-0.6c-6.3-7.6-11.9-15.2-16.3-22.7
		c0-0.1,0-0.1,0-0.2c5.5,5.7,11.9,11.4,19.1,17.2c0.3,0.2,0.6,0.5,0.9,0.7c15.2,12.1,32.6,23.4,51.4,34.1c0.8,0.4,1.5,0.9,2.3,1.3
		c5.3,3,10.7,5.9,16.1,8.7c-0.1-0.3-0.2-0.6-0.3-0.9c-4.6-5.7-9-11.4-13.2-17.1c-1.9-2.6-3.8-5.2-5.6-7.8
		c-13.2-18.6-24.3-37.5-32.4-56.3c-0.9-1.9-1.7-3.7-2.4-5.6l0,0c-0.1-0.2-0.1-0.4-0.2-0.5c-0.3-0.9-0.7-1.8-1-2.6c0,0,0.1,0,0.1,0.1
		c0.4,0.6,0.8,1.2,1.2,1.8c2.4,3.6,5.1,7.3,8,10.9c8.2,10.8,17.7,21.4,28.4,31.9c4.5,4.5,9.2,9,14.1,13.5c5.5,5,11.2,9.9,17.1,14.7
		c-0.6-2.7-1.1-5.4-1.5-8.2c-4.5-8.6-8.8-17.3-12.7-25.9c-3.6-7.8-6.9-15.7-9.9-23.5c-3.3-8.4-6.2-16.7-8.7-25.1
		c0.7,0.1,1.7,0.2,3.1,0.3c3.1,5.1,6.4,10.2,10,15.3c6.1,8.6,12.7,17.1,19.8,25.6c5.9,7.1,12,14.2,18.4,21.2
		c-0.8-8.9-0.8-18,0.2-27.1c-3.5-12.9-6.5-25.8-9.2-38.7c1.8,2.4,5,4.6,9.6,6.8c4.3,9.2,8.9,18.3,13.8,27.4
		c4.4,9.4,9.5,18.8,15.1,28.1c0.5,0.9,1.1,1.8,1.6,2.7c0.2-5,0.4-10,0.7-15c-0.2-3-0.3-6-0.5-9c-0.8-14.7-1.4-29.4-1.8-44
		c-0.1-4-0.2-8-0.3-11.9c0.8-2.7,1.7-5.4,2.8-8.1c0.3,1.2,0.6,2.4,0.9,3.7c4.5,16.9,9.7,33.8,15.5,50.7c0.8,2.3,1.5,4.7,2.3,7
		c4.2-11.3,8.8-22.6,13.8-34c0.1-1.7,0.2-3.3,0.4-5c3.7,7.6,8.2,15.1,13.5,22.7c4.1,5.6,8.5,11.2,13.3,16.8c0.3,0.1,0.5,0.1,0.8,0.2
		c4.4-17.3,8.5-34.7,12.2-52.1c0.1,1.5,0.2,3,0.3,4.5c1.4,12.4,2.7,24.7,3.8,37.1c1.7-3.8,3.4-7.6,5-11.5
		c8.4-4.2,15.6-8.7,21.4-13.3c-0.6,6.5-1.2,13-1.8,19.5c3,6.7,4.8,13.3,5.3,19.7c2.4-4.5,4.8-9.1,7.1-13.7
		c2.6,5.1,4.7,10.1,6.2,15.1c1.3,0.7,2.5,1.4,3.5,2.1c7.3-11.1,13.9-22.4,19.6-33.7c-0.2,4-0.6,8.1-1.3,12.1
		c-0.2,6.6-1.6,13.1-4,19.5c0.9-1.5,1.6-3,2.2-4.6c-2.4,8.9-5.4,17.8-8.8,26.6c-1,4-2.2,8-3.5,12c0.4,0.4,0.8,0.8,1.1,1.2
		c-0.4,1-0.9,1.9-1.3,2.9c0.5-0.5,1.1-0.9,1.6-1.4c6.4-5.7,12.4-11.4,17.9-17.3c4.8-5.2,9.1-10.4,12.8-15.8c1.6-2.2,3-4.4,4.2-6.6
		c4.3-4.6,8.3-9.3,11.9-14c3.2-0.8,5.8-1.6,7.5-2.5c-0.1,1.2-0.3,2.5-0.7,3.7c-2.8,7.1-6.6,14.1-11.3,21.1
		c-3.2,5.9-6.6,11.7-10.3,17.5c6.2-1.4,11.9-3,16.9-4.8c1.5,0.8,2.8,1.5,3.9,2.1c2.9,1.4,4.1,2.8,3.3,4.1c3-2.7,5.7-5.4,8.2-8.1
		c5-3,9.6-6.2,13.8-9.6c1.2-0.9,2.3-1.8,3.3-2.8c4.3-3.9,7.6-7.7,9.6-11.6c0,0,0-0.1,0-0.1c-0.1,0.3-0.1,0.5-0.2,0.8c0,0,0,0,0,0.1
		c0.1-0.1,0.1-0.3,0.2-0.4c0,0,0,0,0,0c-2.4,9.4-8.5,19-16.5,28.5c-0.2,0.2-0.4,0.4-0.6,0.7l0,0c-0.1,0.2-0.3,0.3-0.4,0.5
		c-7.6,12.9-18.2,25.7-30.6,38.2c0.2,0.2,0.4,0.4,0.5,0.7c7.3-2.8,14.4-5.9,21.1-9.2l0,0c-3.5,4.1-7.4,8-11.7,11.9
		c0.8-0.1,1.6-0.2,2.3-0.2c12.1-5.7,23.2-11.8,32.5-18.3c1.6-1,3.1-1.9,4.6-2.9c1.9-1.8,3.4-3.5,4.4-5.2c0,0,0,0,0-0.1
		c4.7-2.4,9.1-4.8,12.8-7.5c1.5-1,2.9-2,4.1-3.1c1.2-1,2.2-2,3-2.9c0.1,0.5,0.1,1.1-0.1,1.7c-0.9,2-2.1,4-3.7,6.1c0,0,0,0,0-0.1
		c0,0,0,0.1,0,0.1c-2.6,3.5-5.6,6.9-9.1,10.2c-4.6,5.3-10.1,10.4-16.1,15.6c-0.5,1-1.2,2-2,3.1c-1.9,2.6-4.3,5.1-6.9,7.6
		c-5.6,4.6-11.6,9.2-17.9,13.6c-2.6,1.7-5.2,3.4-7.8,5c3.5-0.7,7-1.4,10.4-2.1c1.1,0.5,2.1,0.9,3.1,1.3c-2.2,1.5-4.5,3-6.8,4.4
		c1.5-0.3,2.9-0.6,4.4-0.9c10-2.4,19.6-5,28.8-8.1c3.2-1.2,6.3-2.4,9.3-3.8c2.8-1.3,5.4-2.6,7.9-4c2.9-1,5.8-2.1,8.6-3.2
		c6.7-2.4,13-5,18.7-8c0.9-0.5,1.9-1.1,2.7-1.6c1.1,0.4,1.9,0.7,2.4,1.1c-0.1,0.2-0.1,0.3-0.2,0.5c-1.3,1.8-3.2,3.6-5.5,5.4
		c-0.6,0.5-1.2,1.1-1.8,1.6c-8.5,6.8-18.5,13-29.2,18.7c-1.2,0.7-2.3,1.3-3.5,2c-1.7,1.8-3.8,3.5-6.1,5.2c-0.3,0.2-0.5,0.4-0.8,0.6
		c-10.2,6.3-21.5,11.9-33.2,17.1c4.9-0.1,9.8-0.4,14.8-0.7l0,0c-2.8,1.3-5.6,2.5-8.5,3.7c0.8,0,1.7,0.1,2.5,0.1
		c13.8-1,27.6-2.6,41.2-5.4c0.4,0,0.9-0.1,1.3-0.1l0,0c0.9-0.2,1.9-0.5,2.8-0.7c10.4-1.5,20.9-3.6,31.2-6.3c2.8-0.7,5.6-1.5,8.4-2.4
		c5.8-2,11.5-4.4,17.1-7.2c-0.1,0.6-0.2,1.1-0.4,1.5c-0.7,1.3-1.5,2.3-2.4,2.9c-0.6,0.4-1.3,0.7-1.9,1c-4.8,3-9.7,5.8-14.7,8.3
		c-5.2,2.4-10.5,4.7-15.9,6.7c-9.3,3.6-18.8,6.7-28.3,9.4c-3.4,1.1-6.9,2.2-10.3,3.2c-7.3,2.5-14.7,4.6-22.2,6.6
		c-1.1,1.4-2.3,2.7-3.4,3.8c1.1,0.7,2.3,1.4,3.4,2c5,0.9,10.1,1.6,15.4,1.8c8.4,0.2,16.9,0,25.7-0.5c5.4-0.2,10.9-0.5,16.5-1.1
		c6.6-0.3,13.3-0.7,20.1-1.5c7.7-0.6,15.6-1.5,23.8-3.1c3.2-0.8,6.4-1.6,9.7-2.6c0.2,1,0.5,1.7,0.8,2.1c-0.4,0.4-0.8,0.7-1.2,1
		c-2.5,1.3-5,2.2-7.3,2.7c-2.6,1-5.1,2-7.7,2.9c-1.8,1-3.7,1.9-5.5,2.6c-1,0.4-2.1,0.9-3.1,1.3c-14.2,4.2-28.1,7.2-41.7,9.3
		c-4.7,0.8-9.3,1.6-13.9,2.3c-7.5,1.7-14.9,2.8-22,3.4l0,0c-6.7,0.6-13.4,1-20,1.3c-1.4,0.1-2.9,0.2-4.3,0.2
		c2.7,2.6,5.6,4.8,8.7,6.7c0.9,0.2,1.9,0.5,2.8,0.7c19,4.6,39.2,8.1,61.4,9.2c0.6,0,1.2,0.1,1.9,0.1c9.4,2.1,19.5,3.4,30.8,3.4
		c0.4,0,0.8,0,1.2,0c9.9-0.1,20.4-1,31.5-2.8c-0.1,0.1-0.3,0.2-0.4,0.2c-10,2.8-19.5,4.8-28.6,6.1c-0.5,0.1-0.9,0.1-1.3,0.2l0,0
		c-2.7,0.4-5.4,0.7-8,1c-22.7,2.7-44,3.2-63.9,2.2c-2-0.1-4-0.1-5.9-0.3c-5.4-0.3-10.8-0.8-16-1.5c-4.4-0.4-8.8-0.8-13.1-1.2
		c-2.7,2.3-4.9,4.1-6.8,5.7c5.4,2.8,11,5.6,16.6,8.3c13.6,6.5,27.9,12.6,43.2,17.9c8.1,2.9,16.5,5.5,25.2,7.8
		c2.5,3,6.2,5.1,11.3,6.1c-9.8-0.7-19.3-1.7-28.3-3.1c-15.1-2.3-29.4-5.3-43-8.9c-11.3-2.9-22.3-6-33.1-9.4
		c-3.1,2.3-5.5,4.3-7.3,5.8c12.5,10.3,25.7,20.2,39.6,29.7c9.7,7.1,20,13.9,30.9,20.3c3.5,2.1,7.2,4.2,10.9,6.2
		c0.7,0.8,1.5,1.5,2.3,2.2c-3.8-1-7.5-2.1-11.2-3.2c-1.6-0.5-3.2-1-4.8-1.5l0,0c-4.9-1.5-9.7-3.2-14.3-5
		c-22-7.5-42.5-16.1-61.9-25.4c-5.8-2.6-11.4-5.4-16.8-8.2l0,0c-0.7-0.4-1.4-0.7-2-1.1c-4.7-2.5-9.3-4.9-13.9-7.5
		c-0.3,0.4-0.5,0.8-0.8,1.1c5.1,7.5,10.4,15,15.8,22.4c1.9,2.6,3.8,5.1,5.7,7.7c13.3,17.9,27.7,35.5,43.3,52.6
		c0.6,1.1,1.2,2.1,1.8,3.2c-15.6-10.2-30.2-20.8-44-31.8c-1.5-1.2-3-2.4-4.5-3.6c-17.2-13.8-33.4-28.1-48.7-42.7
		C587.7,577.2,587.3,576.7,586.8,576.3L586.8,576.3z M591.9,584c11.1,37.5,23.5,74.8,37.3,111.9c-0.9-1-1.8-1.9-2.6-2.9
		c-24.8-31.9-47.1-64.5-67.2-97.7c-0.6,2.3-1.1,4.7-1.7,7c-2.6,34.6-5.4,69.3-8.4,103.9c-0.2,0.6-0.4,1.1-0.5,1.7
		c-0.8-3-1.5-5.9-2.2-8.9c-1.4-5.5-2.7-10.9-4-16.4c-6.9-28.5-13.2-57-18.9-85.5c-2.9,5.6-5.9,11.3-8.9,16.9
		c-10.9,28.4-22.6,56.7-35,84.8c-0.1-7.1-0.1-14.2-0.2-21.4c2.3-28.2,4.5-56.3,6.8-84.5c-3.3,2.3-6.7,4.5-10.2,6.8
		c-9.1,11.4-18.5,22.6-28.1,33.8c-5.3,6.2-10.8,12.3-16.3,18.4c-9.3,10.3-18.9,20.5-28.8,30.6c5.4-10.9,10.5-21.9,15.4-33
		c10.4-20.7,20.4-41.5,29.9-62.4c1.7-3.5,3.3-7,4.9-10.5c0.3-0.7,0.7-1.5,1-2.2c-0.2,0-0.3,0.1-0.5,0.1c-0.2,0.2-0.5,0.4-0.7,0.5
		c0,0-0.1,0.1-0.1,0.1c-2.8,2.1-5.6,4.1-8.6,6.1c-21.4,15.8-44,30.9-67.9,45.2c-12.7,7.8-25.8,15.3-39.4,22.5l0,0
		c-0.1,0.1-0.2,0.1-0.3,0.2c-1.3,0.7-2.5,1.3-3.8,2c-0.3,0.1-0.7,0.3-1,0.4c1.5-1.3,3-2.6,4.4-3.9c1.8-1.6,3.7-3.3,5.5-4.9
		c24.6-22,47.5-44.8,68.9-68.2c3.8-4.7,7.5-9.5,11.2-14.3c-19.4,8.3-39.5,16.1-60.3,23.1c-4,1.4-8,2.7-12.1,4
		c-20.5,6.7-42.1,12.5-64.8,17.2c-1.9,0.3-3.8,0.6-5.7,0.9c25.7-9.6,49.6-20.5,72.1-32.4c1.6-0.8,3.2-1.7,4.8-2.6
		c17-9.1,33.3-18.7,49.1-28.6c0.2-0.2,0.5-0.4,0.7-0.5c-14.8,3-29.9,5.7-45.3,7.9c-0.1,0-0.1,0-0.2,0c0,0,0,0,0,0
		c-1.8,0.3-3.6,0.5-5.4,0.8c-29.3,4.1-60.2,6.6-92.9,6.5c-0.7,0-1.4,0-2.2,0c-0.9,0-1.8,0-2.7,0c-0.9,0-1.8,0-2.8,0
		c-2.9-0.2-6-0.4-9.1-0.8c1.3-0.2,2.6-0.4,3.9-0.6c4.1-0.6,8-1.3,12-2.1l0,0c5-0.9,9.7-2.2,14.2-3.7c11.2-2.4,22.1-5,32.8-7.9
		c20.6-5.1,39.9-11.5,58.4-18.6l0,0c0.8-0.3,1.7-0.6,2.5-1c2.8-1.1,5.7-2.2,8.5-3.3c2.8-1.4,5.6-2.8,8.4-4.2
		c-2.9,0.1-5.7,0.3-8.6,0.4c-3,0.1-6,0.2-8.9,0.3l0,0c-2.7,0.1-5.4,0.1-8.1,0c-15.7,0.3-31.7,0-47.9-0.8
		c-11.6-0.5-23.3-1.3-35.2-2.6l0,0c-1.3-0.1-2.6-0.3-4-0.5c-11-1.2-22.3-2.9-33.8-5.2c-4.3-0.9-8.6-2-13.1-3.3
		c13.4,1.4,26.3,1.9,38.9,1.9c6.9,0,13.7-0.2,20.3-0.5c23.3-1,45.7-3.3,67.3-6.6c7.1-1,14.1-2.2,21.1-3.5c2.8-0.5,5.7-1.1,8.5-1.6
		c0.6-0.2,1.1-0.3,1.7-0.5c-2.8-0.3-5.6-0.7-8.4-1.1c-1.4-0.2-2.9-0.4-4.3-0.6c-23.4-3.2-47-7.5-70.6-13.3
		c-3.7-0.9-7.4-1.9-11.1-2.8c-20.6-5.4-41.5-12.4-62.3-21.5c-1.3-0.6-2.7-1.3-4-2c23.7,6.9,46.9,10.8,69.4,13
		c1.1,0.1,2.3,0.2,3.4,0.3c28.5,2.7,56.3,3.2,83.7,2.2c0.3,0,0.6,0,0.9,0c0,0,0,0,0,0c-0.2-0.1-0.4-0.2-0.6-0.3c0,0,0,0,0,0
		c-0.1,0-0.1,0-0.2-0.1c-2.9-1-5.8-1.9-8.7-2.9c-21.6-7.4-42.7-15.7-63-25.2c-4-1.8-7.9-3.7-11.8-5.7c-16.6-8.3-32.5-17.5-47-28
		c3,1.4,6,2.7,9.2,3.8c15.4,7,31.6,12.7,48,17.6c6.7,2,13.4,3.8,20.1,5.6c17.8,4.6,35.9,8.3,54.1,11.4c1.5,0.3,2.9,0.6,4.4,0.8l0,0
		c0.2,0,0.4,0.1,0.7,0.1c0.5,0.1,0.9,0.1,1.4,0.2c-0.2-0.1-0.3-0.2-0.5-0.4c-0.4-0.2-0.8-0.4-1.2-0.7c-0.1,0-0.1-0.1-0.2-0.1l0,0
		c-9.7-5.5-19.2-11.2-28.3-17.2c-10.7-6.8-21-13.9-30.8-21.2c-2.2-1.4-4.3-2.9-6.2-4.4c-1.1-0.9-2.2-1.8-3.3-2.7
		c-8.6-6.9-16.6-13.8-23.8-21c-3.1-3.2-5.9-6.5-8.3-9.9c8.2,5.5,17.2,10.7,26.8,15.7c5.5,2.8,11.1,5.6,16.9,8.3
		c14.8,6.8,30.2,13,46.2,18.6c5.7,2,11.4,4,17.2,5.9l0,0c0.2,0.1,0.3,0.1,0.5,0.2c2.7,0.9,5.4,1.7,8.1,2.6c0.5,0.1,0.9,0.2,1.4,0.3
		c-2.6-2.1-5.2-4.1-7.8-6.2c-1-0.8-2-1.7-3-2.5c-18.5-15.2-35.4-31-49.8-47.4c-1.6-1.8-3.1-3.5-4.6-5.3l0,0
		c-0.1-0.1-0.2-0.2-0.3-0.3c-7-8.5-13.2-16.8-18.1-25.1c-0.1-0.1-0.1-0.3-0.2-0.4c6,6.3,13.2,12.7,21.1,19.1
		c0.4,0.3,0.7,0.6,1.1,0.9c16.8,13.4,36.1,25.8,57,37.6c0.6,0.4,1.2,0.7,1.9,1.1c5.8,3.3,11.8,6.5,17.8,9.6
		c-0.4-0.6-0.8-1.2-1.2-1.8c-5-6.3-9.9-12.6-14.6-18.9c-2.6-3.5-5.1-7-7.5-10.5c-14.4-20.6-26.5-41.4-35-62.3
		c-0.4-0.9-0.8-1.9-1.2-2.8l0,0c-0.1-0.3-0.2-0.5-0.3-0.8c-0.4-1-0.7-1.9-1.1-2.9c0.1,0.2,0.3,0.3,0.4,0.5c0.4,0.7,0.9,1.3,1.3,2
		c3.6,5.3,7.5,10.7,11.8,15.9c9.4,11.9,20.3,23.6,32.4,35.1c4.4,4.3,8.9,8.5,13.6,12.7c6.2,5.5,12.5,10.9,19.1,16.2
		c-2.6-5.5-5-11-7.3-16.5c-4.9-9.5-9.5-19.1-13.8-28.7c-3.9-8.8-7.5-17.5-10.7-26.3c-3.4-9.3-6.5-18.5-9.1-27.7
		c2.3,3.6,4.9,7.2,7.9,10.8c3.6,5.6,7.4,11.3,11.4,16.9c7.5,10.4,15.7,20.7,24.5,30.9c6.7,7.8,13.7,15.6,21,23.3
		c-4.7-17.6-8.4-35.4-11-53.1c-3.5-14.3-6.6-28.6-9.2-42.8c5.2,12.8,12.1,25.4,20.5,38c5.1,10.1,10.5,20.2,16.3,30.2
		c3.1,6.1,6.4,12.2,10.1,18.2c0.6,1,1.2,2,1.8,2.9c-0.3-8.5-0.6-17-0.7-25.4c-0.2-3.3-0.4-6.6-0.5-9.9c-0.9-17.9-1.6-35.8-2-53.6
		c-0.1-4.4-0.2-8.8-0.3-13.2c1.5,3.2,3.1,6.4,4.9,9.6c0.4,1.4,0.7,2.7,1.1,4.1c6,22.3,13,44.5,20.8,66.6c0.9,2.6,1.8,5.1,2.7,7.7
		c3.6-26.4,7.5-52.8,11.5-79.2c0.1-1.8,0.3-3.7,0.4-5.5c4.5,25.6,10.2,51.1,17.1,76.5c4.4-5.7,8.8-11.5,13.3-17.3
		c0.3-0.6,0.6-1.1,0.8-1.7c5.1-20.7,9.8-41.4,14.1-62.2c0,2.8,0,5.6,0,8.4c0.3,26,0.5,52,0.6,78c2.3-4.6,4.6-9.1,6.8-13.7
		c12.8-18.6,23.9-37.6,32.9-56.8c-0.8,7.1-1.7,14.2-2.5,21.3c-1,20.2-3.3,40.3-6.7,60.3c2.5-3.9,4.9-7.7,7.2-11.6
		c5.3-2.7,10.1-5.5,14.5-8.4c2.7-2.7,5.3-5.4,7.7-8.2c8.5-13.5,16-27.1,22.2-40.9c-1.3,7.5-3,15-5,22.5
		c-3.5,14.7-8.5,29.3-14.7,43.8c-0.1,0.4-0.2,0.8-0.4,1.2c-2.1,6.4-4.5,12.8-7.1,19.2c0.2,1.5,0.2,2.9,0.2,4.3
		c1.1-0.6,2.2-1.2,3.2-1.8c-0.2,0.5-0.4,1-0.7,1.4c0.3-0.2,0.5-0.5,0.8-0.7c9.1-8,17.5-16.2,25.3-24.6c7.1-7.8,13.6-15.6,19.2-23.7
		c2.3-3.3,4.4-6.6,6.3-9.8c3.1-4,6-8.1,8.6-12.1c0.9,3,1.1,6,0.8,9c-0.9,2.9-1.9,5.8-3.1,8.7c-5.2,12.3-11.8,24.5-19.5,36.5
		c-4.5,7.5-9.3,15-14.4,22.4c10.1-4.7,19.6-9.7,28.2-14.9c3.4-1.5,6.7-3.1,9.7-4.7c7.8-4.3,13.7-8.6,17-13c2.8-3.1,5.2-6.2,7.4-9.3
		c2.5-1.5,4.8-3.1,6.9-4.8c0.6-0.5,1.1-0.9,1.7-1.4c2.2-2.1,4-4.2,5.1-6.3c0-0.1,0-0.1,0.1-0.2c-0.1,0.4-0.2,0.8-0.3,1.2
		c0,0,0,0.1,0,0.1c0-0.1,0.1-0.1,0.1-0.2c0,0,0,0,0,0c-3.6,13.9-12.7,28-24.7,42.1c-0.3,0.3-0.6,0.7-0.9,1l0,0
		c-0.2,0.2-0.4,0.5-0.6,0.7c-9.8,13.4-21.9,26.4-35.5,39.2c0.6-0.1,1.3-0.2,1.9-0.3c11-4.2,21.6-8.8,31.7-13.7l0,0
		c-1.8,2-3.7,4-5.8,5.9c2-0.8,3.9-1.6,5.8-2.5c13.8-7,26.2-14.2,36.3-22.2c1.3-1,2.6-1.9,3.9-2.9c2.9-2.7,5.1-5.3,6.6-7.8
		c0,0,0-0.1,0-0.1c2.4-1.2,4.6-2.5,6.5-3.9c0.7-0.5,1.4-1,2-1.5c0.6-0.4,1.1-0.8,1.4-1.2c-0.2,1.3-0.6,2.7-1.2,4
		c-1.3,3-3.2,6.1-5.6,9.3c0,0,0,0,0,0c0,0,0,0,0,0.1c-3.8,5.2-8.4,10.3-13.6,15.2c-6.7,6.8-14.4,13.5-22.8,20c-0.3,0.5-0.6,1-1,1.5
		c-1,1.3-2.1,2.6-3.5,3.8c-5.6,4.4-11.4,8.6-17.5,12.8c-3.8,2.6-7.7,5.1-11.7,7.5c5.3-1,10.5-2.1,15.7-3.2c3-0.3,6-0.7,8.9-1.1
		c-1.1,0.8-2.3,1.5-3.4,2.2c0.7-0.1,1.5-0.3,2.2-0.4c12.3-3,24.2-6.4,35.5-10.4c4.8-1.8,9.5-3.6,14-5.7c4.2-1.9,8.1-3.9,11.8-5.9
		c2.4-1.1,4.7-2.1,7-3.2c4.7-2.1,9.2-4.3,13.2-6.7c0.8-0.5,1.6-1.1,2.4-1.6c-0.3,1.5-0.9,3-1.9,4.6c-0.3,0.4-0.6,0.8-1,1.2
		c-3,3.4-6.7,6.8-10.9,10c-0.8,0.7-1.6,1.3-2.4,1.9c-12.1,9.3-26.3,17.5-41.4,25.1c-1.6,0.8-3.2,1.6-4.8,2.4c-0.9,0.9-1.9,1.8-3,2.6
		c-0.1,0.1-0.3,0.2-0.4,0.3c-9.6,5.2-19.8,10-30.3,14.5c7.4-0.2,14.8-0.5,22.1-1.1l0,0c-1.4,0.6-2.8,1.3-4.2,1.9
		c1.5-0.1,3.1-0.1,4.6-0.2c17.8-1.4,35.5-3.7,53.1-7.7c0.2,0,0.4,0,0.7,0l0,0c1.4-0.3,2.8-0.7,4.2-1.1c9.3-1.9,18.6-4.2,27.8-7.1
		c2.4-0.8,4.8-1.6,7.2-2.4c6.2-2.4,12.3-5.3,18.2-8.6c-1,1.1-2.1,2.2-3.2,3.2c-3,2.7-6.3,5.1-9.7,7.1c-1.8,1.1-3.7,2.1-5.5,3
		c-5.6,3.2-11.3,6.1-17.1,8.7c-6.9,3-13.9,5.8-21,8.3c-12.1,4.3-24.4,7.9-36.7,11c-3.8,1.1-7.7,2.1-11.5,3c-6.6,1.9-13.3,3.6-20,5.1
		c1.9,1,3.9,2,5.8,2.8c3.5,0.7,6.9,1.3,10.5,1.8c9.2,1,18.5,1.6,28.2,1.8c10.9,0.1,22-0.4,33.4-1.4c6.1-0.5,12.4-1.2,18.7-2.1
		c6.1-0.7,12.4-1.6,18.7-2.8c6.2-0.9,12.6-2.2,19.2-3.8c3.2-1,6.5-2,9.8-3.2c-2.4,2-4.7,3.6-7,5c-1.5,0.8-3,1.6-4.5,2.2
		c-5.6,2.5-11.1,4.5-16.5,6.1c-3.1,1.1-6.2,2.1-9.3,3c-0.9,0.5-1.8,0.9-2.7,1.3c-0.5,0.2-1,0.4-1.6,0.6
		c-18.1,5.1-35.9,8.5-53.1,10.8c-5.1,0.8-10.2,1.4-15.2,2c-3.8,0.9-7.4,1.4-11,1.7l0,0c-10.1,0.9-20.1,1.6-30,1.9
		c-1.6,0.1-3.2,0.1-4.8,0.2c8.6,3.5,17.5,6.6,26.8,9.3c1,0.3,2.1,0.5,3.1,0.7c23.4,5.5,48.7,9.3,76.7,9.8c0.7,0,1.4,0,2.1,0.1
		c4.7,1,9.7,1.7,15.4,1.7c0.3,0,0.7,0,1,0c10.9-0.2,22.5-1.1,34.9-3.1c-0.5,0.2-1.1,0.3-1.6,0.5c-11,3-21.6,5.2-31.6,6.7
		c-0.2,0-0.4,0.1-0.7,0.1l0,0c-4.1,0.6-8.1,1.1-12.1,1.5c-25,2.8-48.3,3.1-70.2,1.9c-1,0-2-0.1-3-0.1c-2.7-0.2-5.4-0.4-8-0.7
		c-4.9-0.3-9.8-0.7-14.6-1.2c-9.1,0.5-17.8,0.6-26.2,0.3c5.9,3.2,11.9,6.4,18,9.5c14.4,7.3,29.5,14,45.4,20.2
		c8.6,3.4,17.5,6.5,26.9,9.4c10.5,4.7,22.4,8.3,35.7,10.7c-11.2-0.5-21.9-1.4-32.1-2.7c-16.3-2.1-31.7-5-46.3-8.6
		c-12.7-3-25.1-6.3-37.1-9.9c-9.9-1.3-19.3-3-28-5.1c13.5,11.5,27.6,22.7,42.6,33.4c13.3,9.8,27.3,19.2,42.3,28.2
		c3.9,2.3,7.8,4.6,11.9,6.9c2.3,1.5,4.6,2.9,7,4.2c-4.2-1.1-8.4-2.3-12.4-3.5c-2.4-0.7-4.8-1.5-7.1-2.2l0,0
		c-2.5-0.8-4.8-1.6-7.1-2.5c-24.7-8.1-47.7-17.3-69.4-27.4c-8.7-4-17.1-8.1-25.3-12.3l0,0c-0.3-0.2-0.7-0.4-1-0.5
		c-5.2-2.7-10.3-5.5-15.4-8.2c-1-0.3-2-0.5-2.9-0.8c5.7,8.3,11.5,16.6,17.4,24.8c1.7,2.3,3.4,4.6,5.1,6.9
		c14.6,19.8,30.4,39.3,47.6,58.2c1.8,2.2,3.6,4.4,5.5,6.6c-17.3-11.2-33.5-23-48.8-35.1c-1.6-1.3-3.2-2.6-4.8-3.9
		c-19-15.3-37-31-53.9-47.2C593.2,585.3,592.5,584.7,591.9,584L591.9,584z M596.9,591.8c12.2,41.1,25.7,81.9,40.8,122.5
		c-1.3-1.7-2.7-3.4-4-5.1c-27.1-34.9-51.4-70.7-73.4-107c-0.3,3.9-0.6,7.8-0.9,11.7c-2.9,37.9-5.9,75.9-9.2,113.8
		c-0.1-0.5-0.3-1.1-0.4-1.6c-0.8-3.2-1.6-6.5-2.5-9.7c-1.8-7.1-3.5-14.2-5.2-21.4c-7.5-31.2-14.3-62.4-20.5-93.7
		c-3.5,9.5-7.1,18.9-10.7,28.3c-12.1,31.1-24.9,62.1-38.7,92.8c1-11.9,1.9-23.9,2.9-35.8c2.5-30.8,5-61.7,7.5-92.5
		c-4.7,6.1-9.5,12.1-14.3,18.1c-10,12.4-20.3,24.8-31,37c-5.9,6.8-11.9,13.5-17.9,20.1c-10.3,11.3-20.9,22.4-31.8,33.4
		c8.7-16.2,17.1-32.4,25.2-48.8c11.3-22.7,22.1-45.5,32.4-68.4c0.3-0.7,0.6-1.4,1-2.1c0.4-0.8,0.7-1.6,1.1-2.5
		c-0.3,0.2-0.6,0.4-0.8,0.6c-0.3,0.2-0.5,0.4-0.8,0.6l0,0l0,0c-23.2,17.4-47.5,34.2-73.4,50.1c-16.9,10.4-34.4,20.4-52.5,30l0,0l0,0
		c-1.4,0.7-2.7,1.5-4.1,2.2c-0.6,0.3-1.2,0.6-1.8,0.9c1.6-1.4,3.3-2.8,4.9-4.2c0.6-0.5,1.1-1,1.7-1.5c27.2-24,52.5-48.8,76.1-74.5
		c6.2-6.8,12.4-13.6,18.4-20.5c-21.2,9.1-43.1,17.7-65.9,25.5c-4.4,1.5-8.9,3-13.4,4.5c-22.4,7.3-45.9,13.8-70.8,19.1
		c-3.3,0.7-6.6,1.4-9.9,2c28.2-10.4,54.5-22.4,79.2-35.3c1.9-1,3.7-2,5.5-2.9c18.6-10,36.5-20.4,53.8-31.3c0.4-0.3,0.8-0.5,1.2-0.8
		c-16.2,3.3-32.7,6.2-49.6,8.7l0,0c0,0,0,0,0,0c-2.4,0.4-4.8,0.7-7.2,1c-32.2,4.5-66,7.1-102,6.8l0,0h0c-1,0-2,0-3,0
		c-5.2,0-10.4-0.2-15.8-0.4c1.4-0.2,2.9-0.4,4.3-0.6c5.4-0.8,10.7-1.8,16-2.8c0,0,0,0,0,0l0,0c12.5-2.3,24.7-5,36.6-8
		c27.4-6.9,53.2-15.3,77.8-24.8l0,0l0,0c3.1-1.2,6.2-2.4,9.3-3.6c4.7-1.9,9.4-3.8,14-5.7c-3.1,0.2-6.3,0.3-9.4,0.4
		c-4,0.2-7.9,0.3-11.9,0.4l0,0l0,0c-17.1,0.5-34.5,0.4-52.2-0.3c-15.4-0.6-31.1-1.7-47-3.5l0,0h0c-12-1.2-24.3-3-36.8-5.3
		c-7.4-1.4-15-3-22.7-4.8c14.8,1.6,29,2.4,42.8,2.5c6.7,0.1,13.2-0.1,19.7-0.3c25.6-0.8,50.3-3.2,74.1-6.7
		c9.2-1.4,18.3-2.9,27.3-4.5c3.1-0.6,6.2-1.2,9.3-1.8c0.9-0.2,1.9-0.4,2.8-0.6c-3-0.4-6.1-0.8-9.2-1.2c-0.7-0.1-1.4-0.2-2.1-0.3
		c-25.6-3.5-51.5-8.1-77.3-14.3c-4.2-1-8.4-2.1-12.6-3.2c-22.5-5.9-45.5-13.4-68.2-23.3c-2.3-1-4.7-2.1-7-3.1
		c26,7.6,51.4,12,76.1,14.5c1.2,0.1,2.4,0.2,3.6,0.4c31.2,3,61.7,3.5,91.7,2.5c0.4,0,0.8,0,1.2,0c0,0,0,0,0,0
		c-0.3-0.1-0.7-0.2-1-0.3l0,0l0,0c-3.8-1.3-7.7-2.6-11.5-3.9c-23.6-8.1-46.7-17.3-68.9-27.8c-4.2-2-8.4-4-12.5-6.1
		c-18.1-9.2-35.5-19.4-51.2-31c5,2.5,10.1,4.9,15.2,7.2c17,7.5,34.7,13.6,52.8,18.9c7.5,2.2,15,4.2,22.6,6.1
		c19.5,4.9,39.4,8.8,59.4,12.1l0,0l0,0c0.3,0,0.6,0.1,0.9,0.1c0.5,0.1,1,0.2,1.5,0.2c-0.3-0.2-0.6-0.3-0.9-0.5
		c-0.4-0.2-0.8-0.5-1.3-0.7l0,0l0,0c-13-7.3-25.6-15-37.8-22.9c-11.6-7.6-22.7-15.4-33.2-23.6l0,0l0,0c-9.6-7.5-18.6-15.1-26.7-22.9
		c-5.3-5.1-10.2-10.3-14.7-15.5c8.8,6.1,18.6,11.9,28.9,17.4c5.6,2.9,11.3,5.8,17.2,8.6c16,7.6,32.9,14.5,50.3,20.7
		c7.6,2.7,15.2,5.3,23,7.8l0,0l0,0c2.9,1,5.9,1.9,8.9,2.8c0.8,0.2,1.6,0.5,2.4,0.7c-2.9-2.3-5.7-4.5-8.5-6.8
		c-0.5-0.4-1.1-0.9-1.6-1.3c-20.4-16.6-39-33.9-54.9-51.8c-2.1-2.4-4.1-4.7-6.1-7.1l0,0l0,0c-7.7-9.3-14.5-18.5-19.9-27.5
		c-0.1-0.2-0.3-0.4-0.4-0.6c6.6,6.9,14.4,13.9,23.1,20.9c0.4,0.3,0.9,0.7,1.3,1c18.4,14.6,39.6,28.3,62.5,41.2
		c0.5,0.3,1,0.5,1.4,0.8c6.4,3.6,12.9,7.1,19.5,10.5c-0.7-0.9-1.5-1.8-2.2-2.7c-5.5-6.9-10.8-13.8-16-20.7
		c-3.2-4.4-6.4-8.8-9.4-13.1c-15.6-22.6-28.6-45.4-37.6-68.3l0,0l0,0c-0.1-0.4-0.3-0.7-0.4-1.1c-0.4-1.1-0.8-2.1-1.2-3.2
		c0.2,0.3,0.4,0.6,0.6,1c0.5,0.7,1,1.5,1.4,2.2c4.7,7,9.9,14,15.6,21c10.6,13,22.9,25.7,36.4,38.3c4.3,4,8.6,7.9,13.1,11.9
		c6.8,6,13.8,11.9,21,17.7c-4.6-8.2-8.9-16.5-13.1-24.8c-5.3-10.5-10.2-21-14.8-31.5c-4.2-9.7-8.1-19.4-11.6-29.1
		c-3.6-10.1-6.8-20.2-9.5-30.3c3.8,7.1,8.1,14.2,12.7,21.3c4,6.2,8.3,12.3,12.9,18.5c9,12.2,18.8,24.2,29.2,36.1
		c7.5,8.5,15.4,17,23.5,25.4c-8.7-26.3-16.1-52.7-22.1-79.1c-3.6-15.7-6.6-31.3-9.2-46.9c8.6,23.2,19.2,46.3,31.4,69.1
		c5.9,11,12.1,22.1,18.7,33c1.7,2.8,3.4,5.6,5.1,8.4c0.7,1.1,1.3,2.2,2,3.2c-0.8-12-1.5-23.9-2.2-35.9c-0.2-3.6-0.4-7.2-0.6-10.9
		c-1-21.1-1.8-42.2-2.2-63.3c-0.1-4.8-0.2-9.6-0.2-14.4c2.2,9.1,4.5,18.3,6.9,27.4c0.4,1.5,0.8,3,1.2,4.4
		c7.6,27.6,16.3,55.1,26.2,82.5c1,2.8,2,5.6,3.1,8.4c3.1-41.5,6.1-83,9.2-124.5c0.2-2,0.3-4,0.5-6.1c5.3,43.5,12.2,87,20.7,130.4
		c4.7-17.1,9.1-34.2,13.3-51.4c0.3-1.2,0.6-2.3,0.9-3.5c5.9-24,11.2-48.1,16.1-72.3c-0.1,4.1-0.2,8.1-0.2,12.2
		c-0.8,39.6-1.6,79.3-2.6,118.9c2.9-5.3,5.8-10.7,8.6-16c17.3-33,32.2-66.4,44.4-100.2c-1,7.7-2.1,15.4-3.3,23.1
		c-5.1,33.7-11.3,67.3-18.7,100.9c2.5-3.2,4.9-6.3,7.4-9.5c8-10.5,15.6-21.1,22.8-31.8c4.1-6.1,8-12.2,11.8-18.4
		c9.7-15.9,18-31.9,24.8-48c-2.5,11-5.4,22-8.7,33c-6.9,22.8-15.5,45.5-25.4,68c-1,2.3-2.1,4.7-3.1,7c-1.8,4-3.6,7.9-5.4,11.8
		c1.3-1.1,2.6-2.3,3.9-3.4c1.8-1.6,3.6-3.2,5.4-4.7l0,0l0,0c11.7-10.4,22.7-21,32.7-31.9c9.5-10.3,18.1-20.9,25.6-31.6
		c3.1-4.4,5.9-8.8,8.4-13.1c2-3.4,3.7-6.8,5.2-10.2c-1.5,6.7-3.5,13.6-6,20.4c-1.6,4.5-3.5,9-5.4,13.6c-7.6,17.5-17,34.8-27.8,52
		c-5.8,9.2-12,18.3-18.5,27.3c14-8,27.3-16.3,39.6-25.1c5.3-3.8,10.5-7.6,15.4-11.5c12.6-10,23.2-20,30.7-30.1
		c2.6-3.5,4.8-6.9,6.6-10.4c0,0,0,0,0,0l0,0c0.2-0.4,0.3-0.7,0.5-1.1c0-0.1,0.1-0.1,0.1-0.2c-0.1,0.5-0.2,1.1-0.3,1.6
		c0,0.1,0,0.1-0.1,0.2l0,0l0,0c-4.8,18.5-16.8,37.1-32.8,55.8c-0.4,0.4-0.8,0.9-1.1,1.3l0,0c-0.3,0.3-0.6,0.7-0.9,1
		c-12,13.8-25.6,27.2-40.3,40.1c1.1-0.4,2.2-0.8,3.3-1.3c14.7-5.7,28.8-11.7,42.2-18.3l0,0l0,0c3.2-1.6,6.3-3.1,9.3-4.7
		c15.6-8.2,29.3-16.7,40-26.1c1.1-1,2.2-1.9,3.2-2.9c3.8-3.6,6.8-7.1,8.8-10.4c0,0,0-0.1,0.1-0.1c0.1-0.1,0.1-0.2,0.2-0.3
		c0,0.1,0,0.1,0,0.2c0,0.1-0.1,0.3-0.1,0.4c-0.5,2.1-1.3,4.2-2.2,6.4c-1.8,4-4.3,8.2-7.5,12.5l0,0l0,0c-5.1,6.9-11.2,13.6-18.1,20.2
		c-8.7,8.3-18.7,16.5-29.5,24.4l0,0l0,0c-5.6,4.1-11.3,8.1-17.2,12c-5.1,3.4-10.3,6.8-15.6,10.1c7-1.3,14-2.7,20.9-4.3
		c5-1.1,9.9-2.3,14.8-3.5l0,0l0,0c14.7-3.7,28.8-7.8,42.1-12.6c6.4-2.3,12.6-4.8,18.6-7.6c5.6-2.5,10.9-5.1,15.7-7.9
		c1.9-1.1,3.7-2.2,5.4-3.3c2.8-1.8,5.4-3.6,7.7-5.4c0.7-0.5,1.4-1.1,2-1.6c-1.7,2.6-3.8,5.4-6.2,8.1c-0.6,0.6-1.1,1.3-1.7,1.9
		c-4.7,5-10.2,9.9-16.3,14.6c-1,0.8-2,1.5-3,2.3c-15.7,11.7-34.1,22.1-53.6,31.5c-2,1-4,1.9-6,2.9l0,0l0,0
		c-8.9,4.2-18.1,8.2-27.4,11.9c9.8-0.2,19.7-0.7,29.5-1.4l0,0l0,0c2.2-0.2,4.5-0.3,6.7-0.5c21.7-1.8,43.5-4.7,65-10l0,0l0,0
		c1.9-0.5,3.7-0.9,5.6-1.4c8.2-2.2,16.3-4.8,24.3-7.9c2-0.8,4-1.6,6-2.5c6.6-2.8,13-6.1,19.2-10c-2,1.7-4,3.4-6.1,5
		c-5.4,4.1-11,7.9-16.9,11.3c-3,1.8-6,3.4-9.1,5.1c-6.4,3.3-12.9,6.4-19.5,9.2c-8.5,3.6-17.2,6.9-26,9.8c-14.8,5-29.9,9.1-45,12.7
		c-4.2,1-8.5,2-12.7,2.9c-5.9,1.3-11.8,2.5-17.8,3.6c5,0.6,10,1.2,15,1.8c5.8,0.6,11.6,1.2,17.5,1.6c13.3,1.1,27,1.7,41,1.7
		c13.4-0.1,27.1-0.8,41.1-2.3c6.9-0.8,13.9-1.8,21-3.2c5.7-1.1,11.4-2.4,17.3-4c4.8-1.3,9.6-2.8,14.5-4.6c3.2-1.2,6.5-2.5,9.8-3.9
		c-5,2.9-9.9,5.5-14.8,7.9c-2.6,1.2-5.2,2.4-7.8,3.5c-8.7,3.7-17.3,6.9-25.8,9.5c-3.7,1.2-7.3,2.2-10.9,3.2l0,0l0,0
		c-22,6-43.6,9.9-64.6,12.4c-5.6,0.7-11.1,1.2-16.5,1.7l0,0l0,0c-13.4,1.2-26.8,2.1-40,2.6c-1.7,0.1-3.5,0.1-5.2,0.2
		c14.6,4.4,29.5,8.4,44.9,11.9c1.2,0.3,2.3,0.5,3.5,0.8c27.9,6.3,58.2,10.5,92,10.4c0.8,0,1.6,0,2.4,0l0,0c0.3,0,0.6,0,0.9,0
		c12-0.2,24.7-1.2,38.2-3.5c-0.9,0.3-1.8,0.5-2.7,0.8c-12.1,3.3-23.6,5.6-34.5,7.2l0,0l0,0c-5.4,0.8-10.8,1.4-16.1,2
		c-27.2,2.9-52.6,3-76.5,1.5l0,0l0,0c-5.4-0.3-10.8-0.7-16.1-1.1c-15.5-1.3-30.7-3-45.5-5.1c6.4,3.6,12.8,7.1,19.4,10.6
		c15.2,8,31.1,15.5,47.7,22.5c9.1,3.9,18.6,7.6,28.6,11c18.5,6.3,38.5,11.6,60.2,15.3c-12.5-0.3-24.5-1-36-2.2
		c-17.6-1.8-34.1-4.7-49.6-8.2c-14.1-3.1-27.9-6.6-41.2-10.4c-16.8-4.8-33.1-10.2-48.8-16c14.4,12.8,29.6,25.2,45.6,37.2
		c16.8,12.5,34.7,24.6,53.8,36c4.2,2.6,8.5,5.1,12.9,7.6c3.8,2.1,7.7,4.3,11.7,6.3c-4.7-1.2-9.2-2.5-13.7-3.8c-3.2-1-6.4-1.9-9.5-3
		l0,0l0,0c-27.4-8.6-52.9-18.6-76.9-29.5c-11.6-5.3-22.8-10.8-33.7-16.5l0,0l0,0c-5.7-3-11.4-6-16.9-9c-1.7-0.9-3.4-1.9-5.1-2.8
		c6.2,9.1,12.5,18.1,19.1,27.1c1.5,2.1,3,4.1,4.5,6.2c16,21.7,33.1,43.1,51.8,63.9c3,3.4,6.1,6.7,9.2,10.1
		c-19-12.3-36.8-25.1-53.6-38.4c-1.7-1.4-3.4-2.7-5.1-4.1c-20.9-16.7-40.5-33.9-59.2-51.6C598.7,593.5,597.8,592.7,596.9,591.8
		L596.9,591.8z"/>
</g>
<g id="layer9" class="st0">
	<path id="path66156" class="st3" d="M767.3,630.4l-115.1-51l97.8,82.3l-108.3-71.3l81.5,99.3L630,607.2l66.5,105.1L611.3,614
		l52.8,115.8l-68.6-104l38,122.3l-53.8-114.4l17.7,120.6l-37.8-118.7l-0.8,128l-15.3-128.7l-19.9,124.7l0.9-123.5l-36.1,122.8
		l17.3-130.3l-52.4,116.9L489,626.3l-70.9,105.9L472,618.1l-84.6,94.1L455,604l-95.2,82.3l81.5-96l-101.6,70.3l95.2-86.5
		l-118.3,52.8l107-66.4l-122.1,37.3l114.6-55.3l-124.4,19.2l121.5-37.3l-127.7,0.8L413.3,506l-125.5-20.4l128.2,2.7l-126.4-38.2
		l129,20.9l-113.9-54.6l118.8,33.3l-108.3-68.7l117,57.2l-93.4-85.4l107.7,65.4l-86.4-95.7l96.2,87.5l-65.2-111.9l80.6,98.1
		l-52.9-116.3l69.7,108.7l-33.4-125.5l52,119.9l-16.5-128.5l35.7,121.5l-2.2-122.9l17.6,121.3l17.8-124l0.4,124.8l35.8-117.7
		l-17.3,122.4l54.2-111l-33.3,120.3l66.2-109l-52.3,115.3l82.7-91.4l-66.9,106.2l96.4-87.3L642,419.2l107-68l-97,83.1l114.2-50.6
		l-106.4,68.2l123-32.2L668,472.2l126.3-21.9l-123.4,40l127.4,0l-127.5,18.3l126.7,19.6l-124.7-4.7l121.1,38.6l-128.7-20.5
		l116.2,53.8l-121.8-34.9L767.3,630.4z"/>
	<path id="path66156-9" class="st3" d="M814.4,720.4L661.7,609l126.9,139.6L649.9,623.7l107.2,148.6L635.7,636.7l92.7,155.4
		L624.7,643.3l69.5,172.9l-92.1-164l53.6,176.3l-65.5-171.6l33,179.7l-51.5-170.2l13.7,179.2l-32-177.9l-5,182.5l-10.5-181.5
		l-32.6,178.6l11.1-179.4L466.5,843L502,661.2l-69.8,167.9l50.3-173.8l-87.5,158l71.4-167.1L360.8,799.3l87.3-160.1L331.2,779
		L434.7,624L300.9,750.2l125.2-138.6L273.4,720l139.7-121l-161.6,93.5l148.8-107.7l-165.2,72.4L395,570.2l-173,54.2l163.6-69
		L208,587.2l175.5-53.5L200,546.5l180.1-33l-177.9-0.6L384,498l-180.4-29l181.6,9.1l-176.7-43.9l179.8,28.9L218.8,396l171.8,52.4
		l-157.5-87.7l165.1,69.9L249.8,327.7l158.5,88.4L274.4,296.5l147.1,106.3L294.8,266.5l137.2,117.8L329.3,238.8l117.3,137.7
		L355,215.3l109.5,148.4l-75-162.2L483,360.8l-56.8-175l72.4,165.3l-36.8-176.6L513.4,348l-15.1-179.1l31.7,178l10.2-186l12.1,185
		L577,163.3l-6.8,187.6l46.7-176.6l-28.6,179l61.5-168.6l-47.1,173.7L690,197.1l-74,170.6l105.2-156.3l-85.9,163.9l115.5-138.1
		L649.3,387.9l132.1-124.2L664.5,399l141.6-109.7l-136.8,125l161.1-92.4L681.6,425.3L853.5,357L687,440.5l176-51l-164.9,73.5
		l176.3-36.2l-175.5,53.5l184.4-14.8l-181,27.4l185.8,8.1l-182.6,14.9l177.4,27.1L703.5,530l176.7,50.2l-185.2-28.8l169.9,63.4
		l-171.8-44.9l157.1,84.6l-166.5-74.9l151.5,106.4l-161.6-84.5L814.4,720.4z"/>
	<path id="path66156-6" class="st3" d="M712.8,753.1L544.1,506.6l146.1,264.9l-145.8-260l119.1,269L541,511.1l98.2,283.1
		l-97.3-284.3l71.5,289.8l-70.5-291.3l41.6,293.8l-42.4-292.7L555,806.1l-11.6-297.6l-13.2,298.7l10-298.5L501,804.8l40.4-294.4
		l-64.6,289.3L543,510.9l-96.5,281.4l95.9-283.8l-116,271.8l115.8-267.9l-141.7,261l138.5-264.1L374.8,754.8L542.5,507L352,740.3
		l188.3-233.3l-206.6,213l209.8-213.6L313.4,700.1l224.4-191.7L298.7,681.1l240.1-174.2l-253.1,149L541,510.1L268.5,635.3L538.2,506
		L256.4,608.7l284.3-104.1l-289.4,78.9l287.4-75.1l-293.9,45.9l296.9-47.1l-296.1,19.7l292.9-19.6l-295.9-5.7l298.8,6.5L242,471.4
		l298.3,33.6l-291-58.6l292.1,60l-288.8-86.1l288.9,83.5L264.9,392.1l273.3,111.2l-265-135.9L538.2,506L290.1,344.3l252.4,160.5
		L307.2,325.1l235.4,177.2L324,304.9l214.4,198L339,284.4l204,222.4L361.1,267.3l180,233.7L383.9,251l156.5,250L412.5,237.5
		l130,264.6L433.1,224.5l109.7,282.4l-84-291l86.2,285.8l-54.5-292.3l53.1,296.9l-30.2-298.9l29.8,294.1l-3.3-294.2l4.5,299.5
		l22.1-300.4l-22.8,295.1l51.8-289.2l-52.9,288.3l81.2-284.7l-77,286.9l100.4-279l-104.6,277l133.2-266.9l-129.3,269l153.4-253.4
		L543.2,505.1l175.7-241.6L545.7,506.3l194.6-226.7L543.7,506.2l214.7-203.4L544.7,502.4l237.2-182.5L545,503.2l252.7-157
		L547.1,502.7l262.1-134.3L548.3,504.3L822,394.7L546.3,508.3l284-89.5l-286.1,84.3l289.8-59l-285.7,63L838,472.4l-294.1,35l296.1-9
		l-297.8,9.7l298.8,14.4l-293.7-16.8l293.8,46.6l-294.1-45.2l287.4,76.2l-290.5-79l283.3,100.3l-278.7-98.1L817.3,629L543,508.3
		l259.1,146.3L547.4,507.3l240.9,169.4l-245-167.6l227.3,192.2L545.7,511.5l209.8,208.9L542.2,508.5l191.2,233.4L546.7,510.5
		L712.8,753.1z"/>
	<path id="path66156-2" class="st3" d="M636.3,806L565,576l41.1,239.3l-53.6-238.7l17.2,242.3l-24.4-241.5l-13.6,244.7l4.6-240.9
		l-37.3,240.7l28.8-248.3L464.8,811l55.5-237l-90,228.6l80.4-232.9L397.4,785.5l105.9-215.8L367.4,764.5l134.2-201.1L340.2,743
		l152.6-186.6L311.6,722.9l174.6-174.1L287.5,692.2l194-149.1L267.6,657.9l213.1-118.4l-229.1,90.8l224.1-101.5l-235,68l229.5-72
		L231.5,559L472,512.8l-240.3,11.4l238.5-18.3l-243.6-17.3l242,9.6L231,455.5l239.8,32l-230.5-69.8l235.3,62.2l-226.7-95l228.5,89.9
		L268.2,349.4L481,466.9L288.7,324.4l201.5,135.2L314.2,293.9l179.8,161.5L333.6,267.7l166.8,181.4L368.1,246.5l139.7,199.3
		L393.3,229.5l121.1,212.1l-86-229.5l92.3,224.5l-60-235.2l67.9,232.5l-30.9-235.5l41.1,234.1L534,192.1l9.3,240.7l26-242.1
		l-18,246.6l56-240L564.5,435L639,204.8l-72.3,232.6l106.6-214.1l-93.9,218.2L704,238.7L583.4,446.2l152.7-187.5L591.9,453.8
		l166.5-173.4l-162.2,180l189-157.6L599,461.6L807.1,335L602,471.9l220.9-103.4L610.2,480.2l230.3-77.3l-231.6,82.6l237.2-51.9
		l-228.5,60.3l239.3-22.2L617,503.2l241.1,1.2l-242.3,7.5l238.3,32l-238.6-23.4L847,576.9l-235.8-53.2L840,609.1l-227.2-74.4
		L826,649L605.8,539.3l201.8,135.3l-207-128.9l182.9,161L597.2,552.4l165.7,177.1L590.1,559.6l145.3,195.6L582.5,564.4l122.6,210.9
		L576.6,572.5l96.5,218.4L567.3,573.3L636.3,806z"/>
</g>
<g id="g66207" class="st0">
	<path id="path66199" class="st3" d="M767.3,630.4l-154.2-78.3l137,109.5l-143.2-99.7l116.4,127.8L597.1,566.7l99.4,145.7L588.3,576
		l75.9,153.8l-89.6-150.2l59,168.5l-66.9-164.8l30.7,171l-43.4-167.9l4.8,177.3l-14.3-174.3l-21,170.3l5.5-170.6l-40.6,169.9
		l30.6-172.6l-65.7,159.1l55.3-167.1l-90.6,153.8l80.6-159.3L387.4,712.2l104.1-144.9l-131.7,119l121.8-125.5l-141.9,99.7
		l134.4-107.9l-157.5,74.1L467.3,540l-165.8,57.7l163.5-71.3l-173.2,35.2l171.2-41.9l-177.3,5.4l173.7-19.6l-171.5-19.9l174.1,9
		l-172.3-44.5l175.3,32.8l-160.2-66.5L467.2,470l-152-89l160.4,78.6L338.8,352.9l143.3,98.3L360.1,322.6l128.4,120.6l-97.4-145
		l109.7,139.5l-82-157.6l92,152.1l-55.7-168.9l65.8,164.1l-30.3-172.6l39.3,172.8l-5.8-174.3l20.5,173.3l14.9-176l-6,174.6
		l42.3-167.5L564.7,429l68-159.9l-58.3,161.4l91.2-150.1l-76.7,157.4l107-133.5L594.4,443.9l131.1-120.7L602.5,453.7L749,351.2
		L612,461.9l154.2-78.2l-149.4,90.9l166-55l-162,66.7l173.4-36l-172.9,47.3l176.9-7.3l-176.6,16.9l175.8,21.1L622,520.7l171.9,41.4
		l-174.1-33.5l161.6,66.8L616,538.8L767.3,630.4z"/>
	<path id="path66201" class="st3" d="M761.9,706.3L634.1,595.2l108,124.5L626,602l99.2,136.9l-105.7-128l80.4,143.7l-92.7-138.9
		l73.2,149.5l-84.1-141.3l64.3,150.7l-72.9-145.1l47.1,155.4l-56.3-152.8L610.9,792l-44.6-158.5l18.8,165.2l-29-162.8l1.1,165
		l-12.5-167.3l-11,166.3l1.1-164.9l-24.4,165.8l10.8-165.2l-39.7,161l31.8-167.4l-54.4,157.6l44.4-156.4l-65.1,148.2l52.6-155.4
		L410.6,771l69.2-149.8l-91.5,136.7l84.2-143.8L366.7,742l95.5-135.1L351.8,728.4l104.2-126.9L329.1,711.6l115.4-118.1l-132.2,95.7
		l128-108.3l-142.5,89.8l133-100.3l-144.6,80.3L427,562.4l-150.4,62.1l144-68.9l-157.8,48l156.6-58.8l-159.9,34.5l159.7-43.9
		l-168.6,21.1l167.1-36l-169.6,9.9l163.4-20.8l-162-5.6l162-2.3l-162-25.8l166.8,10.5l-162.6-30.8l164.9,20.8l-161.9-45.6
		l163.9,35.7l-153.4-58.9l159,49l-149.6-72.6l154.4,65l-143.3-91.3l145.1,77.5l-128.1-99.8l133.4,93.1L315.8,319.4l129.5,100.1
		L334.5,297.3l120.3,115.9L354,284.1l108.6,122.2l-92.3-140.2l101.2,134.2l-80.1-147.7l92.4,137.6L413.8,238l79.6,147.3l-52-153.3
		l59.7,151.3l-39.3-161.8l54,158.5l-29.1-165.4l36.9,160.9l-9.2-159.4l22.1,160l-0.1-164.6l12.2,166.8l18-167.6l-9,166.7L590,216.6
		l-18.9,163l41.4-161.7l-35.9,166.2l59.2-158.8l-47.2,157.7l72.6-143.9l-59.4,153l83.9-145l-74,149.3l95.8-138.2l-86.3,144.9
		l104.4-127.8l-96.4,135.1L746,292.9L634.5,417.1l125.6-105.4L645.4,423.4l133.8-93.6L647,431.1L792,352L657,441.5l151-69.1
		l-147.9,79.9L813.7,395l-148.9,66.4l161-39.3l-159.2,53.4L833,443l-161.1,41.3l161.5-15.1l-161.9,29.3l165.5-4.9L671.6,504
		l162.6,15.6l-163.2-4.5l162.2,31.7l-162.5-14.9l162,36.2l-166.5-31.3l158.1,59.2l-163.1-47.6l152.4,71L657,562.1l148.5,77.6
		L652.2,571l138,92.7l-142.7-86.9l129.7,106.6l-136.4-95.2L761.9,706.3z"/>
	<path id="path66203" class="st3" d="M712.8,753.1L544.1,506.6l146.1,264.9l-145.8-260l119.1,269L541,511.1l98.2,283.1l-97.3-284.3
		l71.5,289.8l-70.5-291.3l41.6,293.8l-42.4-292.7L555,806.1l-11.6-297.6l-13.2,298.7l10-298.5L501,804.8l40.4-294.4l-64.6,289.3
		L543,510.9l-96.5,281.4l95.9-283.8l-116,271.8l115.8-267.9l-141.7,261l138.5-264.1L374.8,754.8L542.5,507L352,740.3l188.3-233.3
		l-206.6,213l209.8-213.6L313.4,700.1l224.4-191.7L298.7,681.1l240.1-174.2l-253.1,149L541,510.1L268.5,635.3L538.2,506L256.4,608.7
		l284.3-104.1l-289.4,78.9l287.4-75.1l-293.9,45.9l296.9-47.1l-296.1,19.7l292.9-19.6l-295.9-5.7l298.8,6.5L242,471.4l298.3,33.6
		l-291-58.6l292.1,60l-288.8-86.1l288.9,83.5L264.9,392.1l273.3,111.2l-265-135.9L538.2,506L290.1,344.3l252.4,160.5L307.2,325.1
		l235.4,177.2L324,304.9l214.4,198L339,284.4l204,222.4L361.1,267.3l180,233.7L383.9,251l156.5,250L412.5,237.5l130,264.6
		L433.1,224.5l109.7,282.4l-84-291l86.2,285.8l-54.5-292.3l53.1,296.9l-30.2-298.9l29.8,294.1l-3.3-294.2l4.5,299.5l22.1-300.4
		l-22.8,295.1l51.8-289.2l-52.9,288.3l81.2-284.7l-77,286.9l100.4-279l-104.6,277l133.2-266.9l-129.3,269l153.4-253.4L543.2,505.1
		l175.7-241.6L545.7,506.3l194.6-226.7L543.7,506.2l214.7-203.4L544.7,502.4l237.2-182.5L545,503.2l252.7-157L547.1,502.7
		l262.1-134.3L548.3,504.3L822,394.7L546.3,508.3l284-89.5l-286.1,84.3l289.8-59l-285.7,63L838,472.4l-294.1,35l296.1-9l-297.8,9.7
		l298.8,14.4l-293.7-16.8l293.8,46.6l-294.1-45.2l287.4,76.2l-290.5-79l283.3,100.3l-278.7-98.1L817.3,629L543,508.3l259.1,146.3
		L547.4,507.3l240.9,169.4l-245-167.6l227.3,192.2L545.7,511.5l209.8,208.9L542.2,508.5l191.2,233.4L546.7,510.5L712.8,753.1z"/>
	<path id="path66205" class="st3" d="M636.3,806l-73.5-229.3l27.5,239.9L546,578.5l-0.5,241.3l-5.7-240.4l-47.6,240l34.3-243.9
		l-81.9,229.3l71.3-229.1l-116.1,213l105.8-223.4L357.6,759.5l137.3-199.1L320.4,732.3l164.1-179.7L287.5,692.2l193.8-144.5
		l-218,102.6l214-114l-233.8,70.1l229.1-81.8l-241.1,33.7l242.2-45.8l-245.1-4.9l238.6-6.8L230.3,455l244.5,32.9l-229.7-79.6
		l231.6,69.9L264.4,363.6l214.9,104.7L288.7,324.4L490.5,458L320.6,285.7l174.2,168.7L357.3,248.3l145.2,195.3L401.5,225.3
		l112.8,214.2l-68.9-235.8l81.4,232.2l-35.4-241.8l42.3,240.7l11-245l6.6,244.1L592.7,193l-33,241.3L639,204.8l-67.3,235.1
		l114.5-214.2L580.6,444.4L727.3,248L587.9,448.7l175.9-168.6L597,455.6l198.4-133.2L605.3,466.6l220.4-103.9L606.3,478.3
		l235.3-65.9l-227.9,80.8l238-34.3l-238.1,44.3l244.5,1.2l-243,10.5l240.1,40.5l-245.1-31.4l232.3,82.9l-230.8-73.3L824.3,648
		l-216-104.2l189.8,145.4L596.5,551.3l169.6,176.6l-176.4-170l136.3,203.8L578.6,567.6l108.3,218.8l-114-213.1L636.3,806z"/>
</g>
<script  id="mesh_polyfill" type="text/javascript">
	!function(){const t=&quot;http://www.w3.org/2000/svg&quot;,e=&quot;http://www.w3.org/1999/xlink&quot;,s=&quot;http://www.w3.org/1999/xhtml&quot;,r=2;if(document.createElementNS(t,&quot;meshgradient&quot;).x)return;const n=(t,e,s,r)=&gt;{let n=new x(.5*(e.x+s.x),.5*(e.y+s.y)),o=new x(.5*(t.x+e.x),.5*(t.y+e.y)),i=new x(.5*(s.x+r.x),.5*(s.y+r.y)),a=new x(.5*(n.x+o.x),.5*(n.y+o.y)),h=new x(.5*(n.x+i.x),.5*(n.y+i.y)),l=new x(.5*(a.x+h.x),.5*(a.y+h.y));return[[t,o,a,l],[l,h,i,r]]},o=t=&gt;{let e=t[0].distSquared(t[1]),s=t[2].distSquared(t[3]),r=.25*t[0].distSquared(t[2]),n=.25*t[1].distSquared(t[3]),o=e&gt;s?e:s,i=r&gt;n?r:n;return 18*(o&gt;i?o:i)},i=(t,e)=&gt;Math.sqrt(t.distSquared(e)),a=(t,e)=&gt;t.scale(2/3).add(e.scale(1/3)),h=t=&gt;{let e,s,r,n,o,i,a,h=new g;return t.match(/(\w+\(\s*[^)]+\))+/g).forEach(t=&gt;{let l=t.match(/[\w.-]+/g),d=l.shift();switch(d){case&quot;translate&quot;:2===l.length?e=new g(1,0,0,1,l[0],l[1]):(console.error(&quot;mesh.js: translate does not have 2 arguments!&quot;),e=new g(1,0,0,1,0,0)),h=h.append(e);break;case&quot;scale&quot;:1===l.length?s=new g(l[0],0,0,l[0],0,0):2===l.length?s=new g(l[0],0,0,l[1],0,0):(console.error(&quot;mesh.js: scale does not have 1 or 2 arguments!&quot;),s=new g(1,0,0,1,0,0)),h=h.append(s);break;case&quot;rotate&quot;:if(3===l.length&amp;&amp;(e=new g(1,0,0,1,l[1],l[2]),h=h.append(e)),l[0]){r=l[0]*Math.PI/180;let t=Math.cos(r),e=Math.sin(r);Math.abs(t)&lt;1e-16&amp;&amp;(t=0),Math.abs(e)&lt;1e-16&amp;&amp;(e=0),a=new g(t,e,-e,t,0,0),h=h.append(a)}else console.error(&quot;math.js: No argument to rotate transform!&quot;);3===l.length&amp;&amp;(e=new g(1,0,0,1,-l[1],-l[2]),h=h.append(e));break;case&quot;skewX&quot;:l[0]?(r=l[0]*Math.PI/180,n=Math.tan(r),o=new g(1,0,n,1,0,0),h=h.append(o)):console.error(&quot;math.js: No argument to skewX transform!&quot;);break;case&quot;skewY&quot;:l[0]?(r=l[0]*Math.PI/180,n=Math.tan(r),i=new g(1,n,0,1,0,0),h=h.append(i)):console.error(&quot;math.js: No argument to skewY transform!&quot;);break;case&quot;matrix&quot;:6===l.length?h=h.append(new g(...l)):console.error(&quot;math.js: Incorrect number of arguments for matrix!&quot;);break;default:console.error(&quot;mesh.js: Unhandled transform type: &quot;+d)}}),h},l=t=&gt;{let e=[],s=t.split(/[ ,]+/);for(let t=0,r=s.length-1;t&lt;r;t+=2)e.push(new x(parseFloat(s[t]),parseFloat(s[t+1])));return e},d=(t,e)=&gt;{for(let s in e)t.setAttribute(s,e[s])},c=(t,e,s,r,n)=&gt;{let o,i,a=[0,0,0,0];for(let h=0;h&lt;3;++h)e[h]&lt;t[h]&amp;&amp;e[h]&lt;s[h]||t[h]&lt;e[h]&amp;&amp;s[h]&lt;e[h]?a[h]=0:(a[h]=.5*((e[h]-t[h])/r+(s[h]-e[h])/n),o=Math.abs(3*(e[h]-t[h])/r),i=Math.abs(3*(s[h]-e[h])/n),a[h]&gt;o?a[h]=o:a[h]&gt;i&amp;&amp;(a[h]=i));return a},u=[[1,0,0,0,0,0,0,0,0,0,0,0,0,0,0,0],[0,0,0,0,1,0,0,0,0,0,0,0,0,0,0,0],[-3,3,0,0,-2,-1,0,0,0,0,0,0,0,0,0,0],[2,-2,0,0,1,1,0,0,0,0,0,0,0,0,0,0],[0,0,0,0,0,0,0,0,1,0,0,0,0,0,0,0],[0,0,0,0,0,0,0,0,0,0,0,0,1,0,0,0],[0,0,0,0,0,0,0,0,-3,3,0,0,-2,-1,0,0],[0,0,0,0,0,0,0,0,2,-2,0,0,1,1,0,0],[-3,0,3,0,0,0,0,0,-2,0,-1,0,0,0,0,0],[0,0,0,0,-3,0,3,0,0,0,0,0,-2,0,-1,0],[9,-9,-9,9,6,3,-6,-3,6,-6,3,-3,4,2,2,1],[-6,6,6,-6,-3,-3,3,3,-4,4,-2,2,-2,-2,-1,-1],[2,0,-2,0,0,0,0,0,1,0,1,0,0,0,0,0],[0,0,0,0,2,0,-2,0,0,0,0,0,1,0,1,0],[-6,6,6,-6,-4,-2,4,2,-3,3,-3,3,-2,-1,-2,-1],[4,-4,-4,4,2,2,-2,-2,2,-2,2,-2,1,1,1,1]],f=t=&gt;{let e=[];for(let s=0;s&lt;16;++s){e[s]=0;for(let r=0;r&lt;16;++r)e[s]+=u[s][r]*t[r]}return e},p=(t,e,s)=&gt;{const r=e*e,n=s*s,o=e*e*e,i=s*s*s;return t[0]+t[1]*e+t[2]*r+t[3]*o+t[4]*s+t[5]*s*e+t[6]*s*r+t[7]*s*o+t[8]*n+t[9]*n*e+t[10]*n*r+t[11]*n*o+t[12]*i+t[13]*i*e+t[14]*i*r+t[15]*i*o},y=t=&gt;{let e=[],s=[],r=[];for(let s=0;s&lt;4;++s)e[s]=[],e[s][0]=n(t[0][s],t[1][s],t[2][s],t[3][s]),e[s][1]=[],e[s][1].push(...n(...e[s][0][0])),e[s][1].push(...n(...e[s][0][1])),e[s][2]=[],e[s][2].push(...n(...e[s][1][0])),e[s][2].push(...n(...e[s][1][1])),e[s][2].push(...n(...e[s][1][2])),e[s][2].push(...n(...e[s][1][3]));for(let t=0;t&lt;8;++t){s[t]=[];for(let r=0;r&lt;4;++r)s[t][r]=[],s[t][r][0]=n(e[0][2][t][r],e[1][2][t][r],e[2][2][t][r],e[3][2][t][r]),s[t][r][1]=[],s[t][r][1].push(...n(...s[t][r][0][0])),s[t][r][1].push(...n(...s[t][r][0][1])),s[t][r][2]=[],s[t][r][2].push(...n(...s[t][r][1][0])),s[t][r][2].push(...n(...s[t][r][1][1])),s[t][r][2].push(...n(...s[t][r][1][2])),s[t][r][2].push(...n(...s[t][r][1][3]))}for(let t=0;t&lt;8;++t){r[t]=[];for(let e=0;e&lt;8;++e)r[t][e]=[],r[t][e][0]=s[t][0][2][e],r[t][e][1]=s[t][1][2][e],r[t][e][2]=s[t][2][2][e],r[t][e][3]=s[t][3][2][e]}return r};class x{constructor(t,e){this.x=t||0,this.y=e||0}toString(){return`(x=${this.x}, y=${this.y})`}clone(){return new x(this.x,this.y)}add(t){return new x(this.x+t.x,this.y+t.y)}scale(t){return void 0===t.x?new x(this.x*t,this.y*t):new x(this.x*t.x,this.y*t.y)}distSquared(t){let e=this.x-t.x,s=this.y-t.y;return e*e+s*s}transform(t){let e=this.x*t.a+this.y*t.c+t.e,s=this.x*t.b+this.y*t.d+t.f;return new x(e,s)}}class g{constructor(t,e,s,r,n,o){void 0===t?(this.a=1,this.b=0,this.c=0,this.d=1,this.e=0,this.f=0):(this.a=t,this.b=e,this.c=s,this.d=r,this.e=n,this.f=o)}toString(){return`affine: ${this.a} ${this.c} ${this.e} \n       ${this.b} ${this.d} ${this.f}`}append(t){t instanceof g||console.error(&quot;mesh.js: argument to Affine.append is not affine!&quot;);let e=this.a*t.a+this.c*t.b,s=this.b*t.a+this.d*t.b,r=this.a*t.c+this.c*t.d,n=this.b*t.c+this.d*t.d,o=this.a*t.e+this.c*t.f+this.e,i=this.b*t.e+this.d*t.f+this.f;return new g(e,s,r,n,o,i)}}class w{constructor(t,e){this.nodes=t,this.colors=e}paintCurve(t,e){if(o(this.nodes)&gt;r){const s=n(...this.nodes);let r=[[],[]],o=[[],[]];for(let t=0;t&lt;4;++t)r[0][t]=this.colors[0][t],r[1][t]=(this.colors[0][t]+this.colors[1][t])/2,o[0][t]=r[1][t],o[1][t]=this.colors[1][t];let i=new w(s[0],r),a=new w(s[1],o);i.paintCurve(t,e),a.paintCurve(t,e)}else{let s=Math.round(this.nodes[0].x);if(s&gt;=0&amp;&amp;s&lt;e){let r=4*(~~this.nodes[0].y*e+s);t[r]=Math.round(this.colors[0][0]),t[r+1]=Math.round(this.colors[0][1]),t[r+2]=Math.round(this.colors[0][2]),t[r+3]=Math.round(this.colors[0][3])}}}}class m{constructor(t,e){this.nodes=t,this.colors=e}split(){let t=[[],[],[],[]],e=[[],[],[],[]],s=[[[],[]],[[],[]]],r=[[[],[]],[[],[]]];for(let s=0;s&lt;4;++s){const r=n(this.nodes[0][s],this.nodes[1][s],this.nodes[2][s],this.nodes[3][s]);t[0][s]=r[0][0],t[1][s]=r[0][1],t[2][s]=r[0][2],t[3][s]=r[0][3],e[0][s]=r[1][0],e[1][s]=r[1][1],e[2][s]=r[1][2],e[3][s]=r[1][3]}for(let t=0;t&lt;4;++t)s[0][0][t]=this.colors[0][0][t],s[0][1][t]=this.colors[0][1][t],s[1][0][t]=(this.colors[0][0][t]+this.colors[1][0][t])/2,s[1][1][t]=(this.colors[0][1][t]+this.colors[1][1][t])/2,r[0][0][t]=s[1][0][t],r[0][1][t]=s[1][1][t],r[1][0][t]=this.colors[1][0][t],r[1][1][t]=this.colors[1][1][t];return[new m(t,s),new m(e,r)]}paint(t,e){let s,n=!1;for(let t=0;t&lt;4;++t)if((s=o([this.nodes[0][t],this.nodes[1][t],this.nodes[2][t],this.nodes[3][t]]))&gt;r){n=!0;break}if(n){let s=this.split();s[0].paint(t,e),s[1].paint(t,e)}else{new w([...this.nodes[0]],[...this.colors[0]]).paintCurve(t,e)}}}class b{constructor(t){this.readMesh(t),this.type=t.getAttribute(&quot;type&quot;)||&quot;bilinear&quot;}readMesh(t){let e=[[]],s=[[]],r=Number(t.getAttribute(&quot;x&quot;)),n=Number(t.getAttribute(&quot;y&quot;));e[0][0]=new x(r,n);let o=t.children;for(let t=0,r=o.length;t&lt;r;++t){e[3*t+1]=[],e[3*t+2]=[],e[3*t+3]=[],s[t+1]=[];let r=o[t].children;for(let n=0,o=r.length;n&lt;o;++n){let o=r[n].children;for(let r=0,i=o.length;r&lt;i;++r){let i=r;0!==t&amp;&amp;++i;let h,d=o[r].getAttribute(&quot;path&quot;),c=&quot;l&quot;;null!=d&amp;&amp;(c=(h=d.match(/\s*([lLcC])\s*(.*)/))[1]);let u=l(h[2]);switch(c){case&quot;l&quot;:0===i?(e[3*t][3*n+3]=u[0].add(e[3*t][3*n]),e[3*t][3*n+1]=a(e[3*t][3*n],e[3*t][3*n+3]),e[3*t][3*n+2]=a(e[3*t][3*n+3],e[3*t][3*n])):1===i?(e[3*t+3][3*n+3]=u[0].add(e[3*t][3*n+3]),e[3*t+1][3*n+3]=a(e[3*t][3*n+3],e[3*t+3][3*n+3]),e[3*t+2][3*n+3]=a(e[3*t+3][3*n+3],e[3*t][3*n+3])):2===i?(0===n&amp;&amp;(e[3*t+3][3*n+0]=u[0].add(e[3*t+3][3*n+3])),e[3*t+3][3*n+1]=a(e[3*t+3][3*n],e[3*t+3][3*n+3]),e[3*t+3][3*n+2]=a(e[3*t+3][3*n+3],e[3*t+3][3*n])):(e[3*t+1][3*n]=a(e[3*t][3*n],e[3*t+3][3*n]),e[3*t+2][3*n]=a(e[3*t+3][3*n],e[3*t][3*n]));break;case&quot;L&quot;:0===i?(e[3*t][3*n+3]=u[0],e[3*t][3*n+1]=a(e[3*t][3*n],e[3*t][3*n+3]),e[3*t][3*n+2]=a(e[3*t][3*n+3],e[3*t][3*n])):1===i?(e[3*t+3][3*n+3]=u[0],e[3*t+1][3*n+3]=a(e[3*t][3*n+3],e[3*t+3][3*n+3]),e[3*t+2][3*n+3]=a(e[3*t+3][3*n+3],e[3*t][3*n+3])):2===i?(0===n&amp;&amp;(e[3*t+3][3*n+0]=u[0]),e[3*t+3][3*n+1]=a(e[3*t+3][3*n],e[3*t+3][3*n+3]),e[3*t+3][3*n+2]=a(e[3*t+3][3*n+3],e[3*t+3][3*n])):(e[3*t+1][3*n]=a(e[3*t][3*n],e[3*t+3][3*n]),e[3*t+2][3*n]=a(e[3*t+3][3*n],e[3*t][3*n]));break;case&quot;c&quot;:0===i?(e[3*t][3*n+1]=u[0].add(e[3*t][3*n]),e[3*t][3*n+2]=u[1].add(e[3*t][3*n]),e[3*t][3*n+3]=u[2].add(e[3*t][3*n])):1===i?(e[3*t+1][3*n+3]=u[0].add(e[3*t][3*n+3]),e[3*t+2][3*n+3]=u[1].add(e[3*t][3*n+3]),e[3*t+3][3*n+3]=u[2].add(e[3*t][3*n+3])):2===i?(e[3*t+3][3*n+2]=u[0].add(e[3*t+3][3*n+3]),e[3*t+3][3*n+1]=u[1].add(e[3*t+3][3*n+3]),0===n&amp;&amp;(e[3*t+3][3*n+0]=u[2].add(e[3*t+3][3*n+3]))):(e[3*t+2][3*n]=u[0].add(e[3*t+3][3*n]),e[3*t+1][3*n]=u[1].add(e[3*t+3][3*n]));break;case&quot;C&quot;:0===i?(e[3*t][3*n+1]=u[0],e[3*t][3*n+2]=u[1],e[3*t][3*n+3]=u[2]):1===i?(e[3*t+1][3*n+3]=u[0],e[3*t+2][3*n+3]=u[1],e[3*t+3][3*n+3]=u[2]):2===i?(e[3*t+3][3*n+2]=u[0],e[3*t+3][3*n+1]=u[1],0===n&amp;&amp;(e[3*t+3][3*n+0]=u[2])):(e[3*t+2][3*n]=u[0],e[3*t+1][3*n]=u[1]);break;default:console.error(&quot;mesh.js: &quot;+c+&quot; invalid path type.&quot;)}if(0===t&amp;&amp;0===n||r&gt;0){let e=window.getComputedStyle(o[r]).stopColor.match(/^rgb\s*\(\s*(\d+)\s*,\s*(\d+)\s*,\s*(\d+)\s*\)$/i),a=window.getComputedStyle(o[r]).stopOpacity,h=255;a&amp;&amp;(h=Math.floor(255*a)),e&amp;&amp;(0===i?(s[t][n]=[],s[t][n][0]=Math.floor(e[1]),s[t][n][1]=Math.floor(e[2]),s[t][n][2]=Math.floor(e[3]),s[t][n][3]=h):1===i?(s[t][n+1]=[],s[t][n+1][0]=Math.floor(e[1]),s[t][n+1][1]=Math.floor(e[2]),s[t][n+1][2]=Math.floor(e[3]),s[t][n+1][3]=h):2===i?(s[t+1][n+1]=[],s[t+1][n+1][0]=Math.floor(e[1]),s[t+1][n+1][1]=Math.floor(e[2]),s[t+1][n+1][2]=Math.floor(e[3]),s[t+1][n+1][3]=h):3===i&amp;&amp;(s[t+1][n]=[],s[t+1][n][0]=Math.floor(e[1]),s[t+1][n][1]=Math.floor(e[2]),s[t+1][n][2]=Math.floor(e[3]),s[t+1][n][3]=h))}}e[3*t+1][3*n+1]=new x,e[3*t+1][3*n+2]=new x,e[3*t+2][3*n+1]=new x,e[3*t+2][3*n+2]=new x,e[3*t+1][3*n+1].x=(-4*e[3*t][3*n].x+6*(e[3*t][3*n+1].x+e[3*t+1][3*n].x)+-2*(e[3*t][3*n+3].x+e[3*t+3][3*n].x)+3*(e[3*t+3][3*n+1].x+e[3*t+1][3*n+3].x)+-1*e[3*t+3][3*n+3].x)/9,e[3*t+1][3*n+2].x=(-4*e[3*t][3*n+3].x+6*(e[3*t][3*n+2].x+e[3*t+1][3*n+3].x)+-2*(e[3*t][3*n].x+e[3*t+3][3*n+3].x)+3*(e[3*t+3][3*n+2].x+e[3*t+1][3*n].x)+-1*e[3*t+3][3*n].x)/9,e[3*t+2][3*n+1].x=(-4*e[3*t+3][3*n].x+6*(e[3*t+3][3*n+1].x+e[3*t+2][3*n].x)+-2*(e[3*t+3][3*n+3].x+e[3*t][3*n].x)+3*(e[3*t][3*n+1].x+e[3*t+2][3*n+3].x)+-1*e[3*t][3*n+3].x)/9,e[3*t+2][3*n+2].x=(-4*e[3*t+3][3*n+3].x+6*(e[3*t+3][3*n+2].x+e[3*t+2][3*n+3].x)+-2*(e[3*t+3][3*n].x+e[3*t][3*n+3].x)+3*(e[3*t][3*n+2].x+e[3*t+2][3*n].x)+-1*e[3*t][3*n].x)/9,e[3*t+1][3*n+1].y=(-4*e[3*t][3*n].y+6*(e[3*t][3*n+1].y+e[3*t+1][3*n].y)+-2*(e[3*t][3*n+3].y+e[3*t+3][3*n].y)+3*(e[3*t+3][3*n+1].y+e[3*t+1][3*n+3].y)+-1*e[3*t+3][3*n+3].y)/9,e[3*t+1][3*n+2].y=(-4*e[3*t][3*n+3].y+6*(e[3*t][3*n+2].y+e[3*t+1][3*n+3].y)+-2*(e[3*t][3*n].y+e[3*t+3][3*n+3].y)+3*(e[3*t+3][3*n+2].y+e[3*t+1][3*n].y)+-1*e[3*t+3][3*n].y)/9,e[3*t+2][3*n+1].y=(-4*e[3*t+3][3*n].y+6*(e[3*t+3][3*n+1].y+e[3*t+2][3*n].y)+-2*(e[3*t+3][3*n+3].y+e[3*t][3*n].y)+3*(e[3*t][3*n+1].y+e[3*t+2][3*n+3].y)+-1*e[3*t][3*n+3].y)/9,e[3*t+2][3*n+2].y=(-4*e[3*t+3][3*n+3].y+6*(e[3*t+3][3*n+2].y+e[3*t+2][3*n+3].y)+-2*(e[3*t+3][3*n].y+e[3*t][3*n+3].y)+3*(e[3*t][3*n+2].y+e[3*t+2][3*n].y)+-1*e[3*t][3*n].y)/9}}this.nodes=e,this.colors=s}paintMesh(t,e){let s=(this.nodes.length-1)/3,r=(this.nodes[0].length-1)/3;if(&quot;bilinear&quot;===this.type||s&lt;2||r&lt;2){let n;for(let o=0;o&lt;s;++o)for(let s=0;s&lt;r;++s){let r=[];for(let t=3*o,e=3*o+4;t&lt;e;++t)r.push(this.nodes[t].slice(3*s,3*s+4));let i=[];i.push(this.colors[o].slice(s,s+2)),i.push(this.colors[o+1].slice(s,s+2)),(n=new m(r,i)).paint(t,e)}}else{let n,o,a,h,l,d,u;const x=s,g=r;s++,r++;let w=new Array(s);for(let t=0;t&lt;s;++t){w[t]=new Array(r);for(let e=0;e&lt;r;++e)w[t][e]=[],w[t][e][0]=this.nodes[3*t][3*e],w[t][e][1]=this.colors[t][e]}for(let t=0;t&lt;s;++t)for(let e=0;e&lt;r;++e)0!==t&amp;&amp;t!==x&amp;&amp;(n=i(w[t-1][e][0],w[t][e][0]),o=i(w[t+1][e][0],w[t][e][0]),w[t][e][2]=c(w[t-1][e][1],w[t][e][1],w[t+1][e][1],n,o)),0!==e&amp;&amp;e!==g&amp;&amp;(n=i(w[t][e-1][0],w[t][e][0]),o=i(w[t][e+1][0],w[t][e][0]),w[t][e][3]=c(w[t][e-1][1],w[t][e][1],w[t][e+1][1],n,o));for(let t=0;t&lt;r;++t){w[0][t][2]=[],w[x][t][2]=[];for(let e=0;e&lt;4;++e)n=i(w[1][t][0],w[0][t][0]),o=i(w[x][t][0],w[x-1][t][0]),w[0][t][2][e]=n&gt;0?2*(w[1][t][1][e]-w[0][t][1][e])/n-w[1][t][2][e]:0,w[x][t][2][e]=o&gt;0?2*(w[x][t][1][e]-w[x-1][t][1][e])/o-w[x-1][t][2][e]:0}for(let t=0;t&lt;s;++t){w[t][0][3]=[],w[t][g][3]=[];for(let e=0;e&lt;4;++e)n=i(w[t][1][0],w[t][0][0]),o=i(w[t][g][0],w[t][g-1][0]),w[t][0][3][e]=n&gt;0?2*(w[t][1][1][e]-w[t][0][1][e])/n-w[t][1][3][e]:0,w[t][g][3][e]=o&gt;0?2*(w[t][g][1][e]-w[t][g-1][1][e])/o-w[t][g-1][3][e]:0}for(let s=0;s&lt;x;++s)for(let r=0;r&lt;g;++r){let n=i(w[s][r][0],w[s+1][r][0]),o=i(w[s][r+1][0],w[s+1][r+1][0]),c=i(w[s][r][0],w[s][r+1][0]),x=i(w[s+1][r][0],w[s+1][r+1][0]),g=[[],[],[],[]];for(let t=0;t&lt;4;++t){(d=[])[0]=w[s][r][1][t],d[1]=w[s+1][r][1][t],d[2]=w[s][r+1][1][t],d[3]=w[s+1][r+1][1][t],d[4]=w[s][r][2][t]*n,d[5]=w[s+1][r][2][t]*n,d[6]=w[s][r+1][2][t]*o,d[7]=w[s+1][r+1][2][t]*o,d[8]=w[s][r][3][t]*c,d[9]=w[s+1][r][3][t]*x,d[10]=w[s][r+1][3][t]*c,d[11]=w[s+1][r+1][3][t]*x,d[12]=0,d[13]=0,d[14]=0,d[15]=0,u=f(d);for(let e=0;e&lt;9;++e){g[t][e]=[];for(let s=0;s&lt;9;++s)g[t][e][s]=p(u,e/8,s/8),g[t][e][s]&gt;255?g[t][e][s]=255:g[t][e][s]&lt;0&amp;&amp;(g[t][e][s]=0)}}h=[];for(let t=3*s,e=3*s+4;t&lt;e;++t)h.push(this.nodes[t].slice(3*r,3*r+4));l=y(h);for(let s=0;s&lt;8;++s)for(let r=0;r&lt;8;++r)(a=new m(l[s][r],[[[g[0][s][r],g[1][s][r],g[2][s][r],g[3][s][r]],[g[0][s][r+1],g[1][s][r+1],g[2][s][r+1],g[3][s][r+1]]],[[g[0][s+1][r],g[1][s+1][r],g[2][s+1][r],g[3][s+1][r]],[g[0][s+1][r+1],g[1][s+1][r+1],g[2][s+1][r+1],g[3][s+1][r+1]]]])).paint(t,e)}}}transform(t){if(t instanceof x)for(let e=0,s=this.nodes.length;e&lt;s;++e)for(let s=0,r=this.nodes[0].length;s&lt;r;++s)this.nodes[e][s]=this.nodes[e][s].add(t);else if(t instanceof g)for(let e=0,s=this.nodes.length;e&lt;s;++e)for(let s=0,r=this.nodes[0].length;s&lt;r;++s)this.nodes[e][s]=this.nodes[e][s].transform(t)}scale(t){for(let e=0,s=this.nodes.length;e&lt;s;++e)for(let s=0,r=this.nodes[0].length;s&lt;r;++s)this.nodes[e][s]=this.nodes[e][s].scale(t)}}document.querySelectorAll(&quot;rect,circle,ellipse,path,text&quot;).forEach((r,n)=&gt;{let o=r.getAttribute(&quot;id&quot;);o||(o=&quot;patchjs_shape&quot;+n,r.setAttribute(&quot;id&quot;,o));const i=r.style.fill.match(/^url\(\s*&quot;?\s*#([^\s&quot;]+)&quot;?\s*\)/),a=r.style.stroke.match(/^url\(\s*&quot;?\s*#([^\s&quot;]+)&quot;?\s*\)/);if(i&amp;&amp;i[1]){const a=document.getElementById(i[1]);if(a&amp;&amp;&quot;meshgradient&quot;===a.nodeName){const i=r.getBBox();let l=document.createElementNS(s,&quot;canvas&quot;);d(l,{width:i.width,height:i.height});const c=l.getContext(&quot;2d&quot;);let u=c.createImageData(i.width,i.height);const f=new b(a);&quot;objectBoundingBox&quot;===a.getAttribute(&quot;gradientUnits&quot;)&amp;&amp;f.scale(new x(i.width,i.height));const p=a.getAttribute(&quot;gradientTransform&quot;);null!=p&amp;&amp;f.transform(h(p)),&quot;userSpaceOnUse&quot;===a.getAttribute(&quot;gradientUnits&quot;)&amp;&amp;f.transform(new x(-i.x,-i.y)),f.paintMesh(u.data,l.width),c.putImageData(u,0,0);const y=document.createElementNS(t,&quot;image&quot;);d(y,{width:i.width,height:i.height,x:i.x,y:i.y});let g=l.toDataURL();y.setAttributeNS(e,&quot;xlink:href&quot;,g),r.parentNode.insertBefore(y,r),r.style.fill=&quot;none&quot;;const w=document.createElementNS(t,&quot;use&quot;);w.setAttributeNS(e,&quot;xlink:href&quot;,&quot;#&quot;+o);const m=&quot;patchjs_clip&quot;+n,M=document.createElementNS(t,&quot;clipPath&quot;);M.setAttribute(&quot;id&quot;,m),M.appendChild(w),r.parentElement.insertBefore(M,r),y.setAttribute(&quot;clip-path&quot;,&quot;url(#&quot;+m+&quot;)&quot;),u=null,l=null,g=null}}if(a&amp;&amp;a[1]){const o=document.getElementById(a[1]);if(o&amp;&amp;&quot;meshgradient&quot;===o.nodeName){const i=parseFloat(r.style.strokeWidth.slice(0,-2))*(parseFloat(r.style.strokeMiterlimit)||parseFloat(r.getAttribute(&quot;stroke-miterlimit&quot;))||1),a=r.getBBox(),l=Math.trunc(a.width+i),c=Math.trunc(a.height+i),u=Math.trunc(a.x-i/2),f=Math.trunc(a.y-i/2);let p=document.createElementNS(s,&quot;canvas&quot;);d(p,{width:l,height:c});const y=p.getContext(&quot;2d&quot;);let g=y.createImageData(l,c);const w=new b(o);&quot;objectBoundingBox&quot;===o.getAttribute(&quot;gradientUnits&quot;)&amp;&amp;w.scale(new x(l,c));const m=o.getAttribute(&quot;gradientTransform&quot;);null!=m&amp;&amp;w.transform(h(m)),&quot;userSpaceOnUse&quot;===o.getAttribute(&quot;gradientUnits&quot;)&amp;&amp;w.transform(new x(-u,-f)),w.paintMesh(g.data,p.width),y.putImageData(g,0,0);const M=document.createElementNS(t,&quot;image&quot;);d(M,{width:l,height:c,x:0,y:0});let S=p.toDataURL();M.setAttributeNS(e,&quot;xlink:href&quot;,S);const k=&quot;pattern_clip&quot;+n,A=document.createElementNS(t,&quot;pattern&quot;);d(A,{id:k,patternUnits:&quot;userSpaceOnUse&quot;,width:l,height:c,x:u,y:f}),A.appendChild(M),o.parentNode.appendChild(A),r.style.stroke=&quot;url(#&quot;+k+&quot;)&quot;,g=null,p=null,S=null}}})}();
	</script>
<g>
	<g>
		<path d="M135,405.2c-11.8,5.9-20.5,13.7-30,20.4c-6.9,4.9-13.6,10.1-21.8,12.7c-5.9,1.8-8.1,0.1-6.9-6c1.1-5.8,4.2-10.8,7.4-15.6
			c5.7-8.6,11.8-17,17.5-25.5c2.5-3.7,5.3-7.2,6.7-12.2c-7.9-0.7-13.8,3.9-20,6.6c-9.5,4-18.6,8.9-27.9,13.2
			c-2.8,1.3-5.8,2.5-9.1,2.5c-6.1,0-8.2-3-5.5-8.6c2.4-5.1,6.2-9.2,10.2-13.1c9.2-9.2,18.4-18.4,27.5-27.6c1.4-1.4,4-2.7,2.6-5.1
			c-1.2-2.1-3.3-0.4-5,0c-15.7,3.5-31.3,7.2-47,10.6c-3.9,0.9-8.9,3.1-11.3-1.9c-2.3-4.8,0.8-8.8,4.7-11.5c11.4-8.1,23-16.1,34.6-24
			c3.1-2.1,5.8-4.4,8.6-8.3c-7.7-2.3-14.8-1.3-21.8-1.1c-12.2,0.3-24.4,1.2-36.5,1.6c-2.4,0.1-6.3,2.7-7.2-1.9
			c-0.7-3.9-0.7-7.8,3.9-10.2c6.8-3.6,14-6.3,21.1-9c7.4-2.9,14.8-5.7,22-8.8c4-1.7,8.4-3.2,11.5-7.8c-10.5-3.9-21.1-5.2-31.6-6.9
			c-7.6-1.3-15.2-2.1-22.7-3.5c-3.9-0.7-7.8-1.8-7.6-7.4c0.2-4.9,3.2-6.1,7.1-6.9c13.7-2.6,27.5-5.2,41.2-7.9
			c4.1-0.8,8.3-1.4,12.2-4.5c-5.2-5-11.8-6.9-17.9-9.5c-8.5-3.6-17.3-6.5-25.9-9.9c-2.2-0.9-4.4-1.9-6.4-3.2
			c-3.2-1.9-5.2-4.7-4.2-8.6c1-3.9,4.5-4,7.7-4.1c9.6-0.2,19.1,0,28.6-0.4c8.1-0.3,16.2-1.1,25.6-1.8c-5-7-11.8-9.5-17.5-13.3
			c-8.8-5.9-18-11.1-27-16.7c-2.2-1.4-4.2-3.2-6.2-4.9c-2.9-2.5-4.2-5.9-2.6-9.2c1.5-3.1,5.1-2.3,7.9-1.7
			c17.8,3.5,35.7,7.1,53.5,10.7c1.8,0.4,3.6,0.4,6,0.7c-0.6-4.1-3.4-6.1-5.6-8.5c-9.1-10-20.2-18.1-28.7-28.7
			c-1-1.3-2.1-2.4-2.9-3.8c-1.8-3-3.3-6.3-0.7-9.5c2.4-2.9,5.6-2.3,8.8-1.5c10.3,2.6,19.8,7.3,29.5,11.5c6.5,2.8,12.8,5.9,20.9,7.1
			c-2.8-8-7.7-13.7-12.2-19.6c-6.4-8.4-13-16.7-17.9-26.2c-1.4-2.8-3-5.8-0.4-8.8c2.3-2.8,5.3-1.8,8.1-1.2
			c8.5,1.7,15.2,7.1,22.3,11.7c7.5,4.9,15,10,22.6,14.8c1.4,0.9,3.6,2.2,5,0.3c0.6-0.9-0.1-3-0.7-4.4c-5.9-12.7-12.2-25.2-17.9-37.9
			c-2.1-4.8-6.1-11.2-0.7-15.3c5.6-4.2,11.3,0.8,15.4,4.7c9.7,9,18.7,18.7,28.2,28c1.8,1.7,3.3,4.2,6.9,4.2c0.8-7.8-2-15-3.6-22.3
			c-2.4-11.1-5.6-22-8.1-33c-0.8-3.6-2.8-8.5,1.6-10.8c4.7-2.5,8.5,0.9,11.6,4.5c9.5,11.1,15.7,24.5,24.6,36.1
			c2.9,3.8,4.9,11.2,9.5,10c3.6-0.9,1.5-8.6,1.4-13.2c-0.3-14-1.1-28.1-1.4-42.1c-0.1-2.4-2.2-6.4,2.5-7c3.8-0.5,8-1,10.7,3.2
			c3.5,5.7,5.2,12.1,7.6,18.2c3.7,9.6,7.4,19.2,11.3,28.7c0.8,1.8,1.8,4.3,4.4,3.9c2.6-0.3,2.8-2.8,3.3-4.8
			c3.4-12.5,3.8-25.6,6.3-38.3c0.6-2.8,1-5.7,1.9-8.5c1.2-4.2,4.6-5.5,8.6-5.5c4.2-0.1,5.2,2.9,5.8,6.2c2.5,13.8,5,27.5,7.6,41.2
			c0.6,3.3,0.7,7.7,5,7.9c3.6,0.2,4.6-4.1,5.8-6.8c4-10.3,7.6-20.8,11.6-31.1c1.8-4.7,3.8-9.3,5.9-13.8c1.6-3.4,4.7-4.1,8.1-3.7
			c4.1,0.5,3.8,3.8,3.7,6.7c-0.2,10.1-0.3,20.1-0.8,30.2c-0.5,9.3-1,18.5,1.3,27.8c3.8,0.5,4.8-2.8,6.2-5c8.1-12.4,16-24.9,24-37.4
			c1.3-2,2.8-3.9,4.4-5.6c2.7-2.8,6.3-3.5,9.5-2c3.2,1.5,3.3,5.2,2.6,8.4c-3.1,14.4-6.3,28.8-9.6,43.2c-1,4.2-2.7,10.4,0,11.9
			c4,2.2,6.4-3.9,9.2-6.6c9.7-9.4,17.3-20.8,27.8-29.5c2-1.7,4.3-3,6.5-4.4c2.2-1.3,4.5-1.7,6.7,0c2.3,1.8,2.8,4.2,2.1,7.1
			c-2.1,9.9-6.6,18.9-10.8,28c-3.9,8.5-8.3,16.8-11.4,27.1c10.2-3.7,17.2-9.5,24.6-14.9c9.2-6.7,18.1-13.7,28.7-18.2
			c2.6-1.1,5.4-2.9,8.1-0.4c2.8,2.6,1,5.4,0,8.1c-5.8,14.5-16.4,25.8-24.7,38.7c-2.9,4.4-7.3,8.3-7.2,15.6
			c16.3-7.6,31.7-14.9,47.2-22c3.6-1.6,7.1-3.4,11.3-3.3c6.2,0.1,8,2.9,5.5,8.6c-2,4.4-5.2,7.9-8.5,11.4
			c-10.7,11.4-22.8,21.4-33.6,34.3c10.5,1.3,19.4-1.9,28.4-3.9c7.5-1.7,14.9-3.4,22.5-4.5c4.3-0.7,9-1.5,11.3,2.9
			c2.5,5-1.2,8.7-4.9,11.3c-11,7.7-22.4,15-33.5,22.7c-2.9,2-8.2,3.3-6.9,7.5c1,3.4,6.2,2.1,9.5,2c14.3-0.3,28.6-1.1,42.9-1.4
			c2.6-0.1,7-2.5,7.9,2.4c0.8,4.5,0.2,8.8-4.7,11.5c-9.1,4.9-19.1,7.5-28.6,11.6c-4.8,2.1-10,3.4-14.8,5.6c-2.6,1.2-7.2,1.5-6.8,5.2
			c0.4,2.9,4.3,3.2,7.3,3.7c9.1,1.4,18.2,3,27.3,4.5c6.5,1.1,13,2,19.5,3.2c3.9,0.7,6.9,2.4,6.9,7.2c0,4.8-2.9,6.4-6.9,7.2
			c-15.8,3.1-31.6,6.2-47.4,9.2c-2,0.4-5,0-5.4,2.4c-0.5,2.7,2.3,4.1,4.4,5c8.8,3.5,17.7,6.8,26.6,10.2c4.4,1.7,8.9,3.2,13.4,5
			c4.3,1.7,7.5,4.7,6.7,9.5c-0.8,5.2-5.5,4.8-9.5,4.9c-13.8,0.5-27.5,1-41.3,1.6c-2.4,0.1-5.7-0.5-6.5,1.8c-1,3,2.5,4.4,4.5,5.6
			c11.3,7.3,22.9,14.3,34.2,21.5c2.4,1.5,4.7,3.5,6.9,5.4c3.5,3,3.9,7.2,2.1,10.9c-1.6,3.2-5.6,2.6-8.7,1.9
			c-12.6-2.7-25.2-5.7-37.9-8.2c-4.8-0.9-9.6-2.9-15.8-1.5c4.3,7.9,10.6,13,16.6,18.3c7.8,6.8,15.6,13.6,21.5,22.2
			c2.1,3,3.9,6.5,1.2,10.2c-2.7,3.7-6.3,1.9-9.5,1c-15.3-4.4-29-12.6-43.7-18.4c-2.6-1-4.9-3.5-8.4-1.7c2.4,7.8,7.9,13.6,12.5,19.9
			c6.1,8.3,12.6,16.4,16.8,25.9c1.5,3.6,3.8,7.9,0.5,11.1c-3.7,3.6-7.8,1.1-11.6-1c-12.2-6.5-22.7-15.5-34.2-23.1
			c-2.8-1.9-5.8-3.5-9.4-5.6c-1,5.2,1.5,8.8,3,12.4c3.9,9.5,8.3,18.8,12.4,28.3c1.5,3.4,2.8,6.8,3.1,10.6c0.3,3,1,6.2-2,7.9
			c-2.9,1.6-6.1,1-9-1c-7.4-5.2-14.2-11-20.5-17.5c-6-6.3-12.1-12.3-20.6-17.3c0.8,13.1,5.1,24.4,7.9,36c1.4,5.9,3,11.8,4,17.7
			c0.4,2.6,1.5,6.3-1.9,7.8c-3.3,1.5-7,1-9.8-1.4c-2.4-2-4.6-4.4-6.3-7c-7.5-10.9-14.8-21.9-22.2-32.9c-1.5-2.2-2.7-4.6-6.3-5.6
			c-2,10.9-1.3,21.7-0.6,32.4c0.6,8.5,1.1,16.9,1,25.4c0,2.5,2.2,6.3-2.4,7.1c-3.7,0.6-7.7,0.5-9.8-3.5c-2.5-4.7-4.8-9.4-6.9-14.3
			c-3.9-9.2-7.5-18.6-11.4-27.8c-1.5-3.6-3.3-7.1-6.9-10.5c-5,10.1-5.2,20.6-7.2,30.8c-1.4,7.5-2.1,15.2-3.5,22.7
			c-0.7,4.1-1.4,8.9-7.3,8.7c-5.1-0.2-6.2-4.4-7-8.3c-2.8-14.2-5.2-28.5-8.1-42.8c-0.7-3.7-0.6-9.7-4.4-10.1c-4-0.4-4.8,5.6-6.2,9
			c-4.7,11.7-8.9,23.7-13.5,35.5c-1,2.7-2.6,5.2-4.1,7.7c-1.8,3-4.7,3.4-7.7,2.8c-3.3-0.6-3.8-3.5-3.9-6.1c-0.2-8.5,0-17-0.3-25.5
			c-0.3-8.7-0.9-17.5-1.5-26.2c-0.1-1.2-0.5-2.9-1.3-3.5c-1.8-1.2-2.8,0.8-3.7,1.9c-5.4,6.2-9.3,13.5-13.5,20.5
			c-3.7,6.4-7.6,12.7-12.5,18.4c-2.8,3.3-6.4,3.8-10.1,2.7c-4.5-1.3-3.9-5.5-3.4-8.7c2.6-14.5,5.6-29,8.6-43.5
			c0.5-2.3,1.8-5.5-0.1-6.8c-2.9-1.9-4.6,1.7-6.2,3.4c-8.4,8.8-16.6,17.9-24.8,26.9c-3.8,4.1-7.9,7.8-12.6,10.8
			c-2.7,1.7-5.5,2.1-8.2,0.5c-3.3-2-2.2-4.8-1.6-7.8c3.3-13.7,10.5-25.9,15.5-38.9C131.5,417.6,134.2,412.4,135,405.2z M369.2,199.7
			c0-24.6-11.7-49.4-30.2-63.7c-23.2-17.9-49.8-11.6-62.2,14.9c-14.8,31.4,2.2,78.6,33.6,93.4c19.4,9.2,38.9,4.4,50.2-12.9
			C366.8,221.9,369.6,211.1,369.2,199.7z M238.5,212.4c-0.5-18.8-5.4-38.4-21.1-54c-21.3-21.1-52.2-16.3-65.7,10.2
			c-13.3,26-7.4,66.7,12.6,87.8c20.5,21.5,51.6,17.8,66.4-7.9C236.6,238,238.6,226.7,238.5,212.4z"/>
		<path d="M279.7,173.6c-0.1-11.6,4.6-19.3,13.5-22.9c8-3.2,16.9-0.5,23.9,7.8c6.3,7.4,9.4,15.9,6.4,25.8
			c-2.6,8.2-6.7,15.1-16.2,16.5c-10.2,1.5-17.4-3.3-22.8-11.3C281.2,184.5,279.4,179,279.7,173.6z"/>
		<path d="M222.8,197.7c-0.1,14.8-8.2,24.4-20.2,25c-11.6,0.6-22.8-10.6-24.6-24.7c-1.8-13.8,6.1-25.1,18.7-26.7
			c13.1-1.7,23.8,7.1,25.8,21C222.8,194.5,222.8,196.6,222.8,197.7z"/>
	</g>
</g>
</svg>
